<svg width="97" height="96" viewBox="0 0 97 96" fill="none" xmlns="http://www.w3.org/2000/svg">
<path d="M48.5 95.68C74.9213 95.68 96.34 74.2613 96.34 47.84C96.34 21.4187 74.9213 0 48.5 0C22.0787 0 0.660034 21.4187 0.660034 47.84C0.660034 74.2613 22.0787 95.68 48.5 95.68Z" fill="black"/>
<path d="M72.611 46.4782C72.611 66.3012 48.55 72.0922 48.55 72.0922C48.55 72.0922 24.489 65.5372 24.489 46.4782V26.3432C24.489 24.7902 26.253 23.9402 27.497 24.8702C29.32 26.2332 32.194 27.4202 36.675 27.4202C41.802 27.4202 44.752 25.8672 46.429 24.2722C47.679 23.0832 49.656 23.0392 50.934 24.1972C52.723 25.8172 55.731 27.4202 60.633 27.4202C64.958 27.4202 67.79 26.1722 69.607 24.7652C70.835 23.8152 72.611 24.6862 72.611 26.2392V46.4782Z" fill="white"/>
</svg>
