<svg width="621" height="643" viewBox="0 0 621 643" fill="none" xmlns="http://www.w3.org/2000/svg">
<mask id="path-1-inside-1_66_1377" fill="white">
<path d="M16 17.9108H621V642.911H16V17.9108Z"/>
</mask>
<path d="M621 642.911V643.911H622V642.911H621ZM620 17.9108V642.911H622V17.9108H620ZM621 641.911H16V643.911H621V641.911Z" fill="black" mask="url(#path-1-inside-1_66_1377)"/>
<rect width="611" height="632.821" fill="black"/>
<g clip-path="url(#clip0_66_1377)">
<path d="M585 66H26V566H585V66Z" fill="black"/>
<path d="M136.588 225.35C136.321 224.081 136.048 222.78 135.392 221.685C135.014 221.055 134.435 220.554 133.764 220.2C133.715 220.122 133.673 220.04 133.604 219.972C133.319 219.695 132.899 219.572 132.498 219.459C128.989 218.472 125.004 217.511 121.173 216.506C121.473 216.439 121.775 216.379 122.073 216.309C119.992 215.571 118.469 213.51 118.928 211.55C119.324 209.864 120.942 208.671 122.364 207.508C123.786 206.346 125.202 204.836 124.984 203.124C124.633 200.376 120.515 199.297 119.378 196.725C118.518 194.781 119.617 192.6 120.922 190.866C122.226 189.132 123.816 187.416 124.052 185.336C124.301 183.13 122.946 181.029 121.355 179.329C119.764 177.628 117.871 176.119 116.684 174.171C115.349 171.979 115.013 169.39 113.686 167.195C111.84 164.138 107.816 162.091 103.999 162.736C102.742 162.949 101.576 163.492 100.604 164.24C100.487 163.982 100.603 163.641 100.898 163.531C98.5582 161.808 95.146 161.621 92.2683 162.47C89.3895 163.319 86.9533 165.062 84.7419 166.915C82.5294 168.768 80.4566 170.778 77.978 172.339C76.4274 173.316 74.5022 174.49 74.6967 176.178C74.7526 176.663 74.993 177.123 75.0109 177.611C75.0399 178.402 74.4899 179.1 74.0628 179.793C73.2187 181.159 72.7883 182.727 72.8274 184.288C72.0057 184.192 71.3528 184.991 71.3271 185.731C71.3013 186.472 71.6859 187.166 71.9352 187.872C72.7055 190.054 72.1231 192.578 70.4494 194.309C69.6187 195.168 68.5611 195.825 67.6768 196.639C64.514 199.55 64.1137 204.518 66.7399 207.821C66.5655 209.08 67.2911 210.542 68.0468 211.721C68.835 212.95 69.6243 214.179 70.4125 215.409C67.3224 217.509 64.1204 219.441 60.8 221.144C59.8799 221.616 58.8938 222.128 58.413 223.052C57.835 224.161 58.157 225.502 58.2364 226.754C58.4354 229.904 57.001 232.889 56.1815 235.935C55.4515 238.648 55.2033 241.469 55.0121 244.275C54.7192 248.557 54.5503 252.847 54.5056 257.139C54.4453 262.877 54.5984 268.689 53.2803 274.27C52.9192 275.798 52.4463 277.334 52.5335 278.902C52.6251 280.546 53.3284 282.09 54.1389 283.517C58.1257 290.532 64.8024 295.527 71.8402 299.42C71.2622 300.759 70.673 302.093 70.0492 303.41C69.8066 303.921 69.555 304.463 69.6087 305.026C69.6691 305.659 70.1028 306.19 70.5612 306.632C72.7201 308.712 75.675 309.643 78.6645 310.209C73.9946 324.695 77.5744 340.332 76.0741 355.408C75.7364 358.802 75.0869 362.297 72.9795 365.137C72.6072 365.639 72.1801 366.143 72.0918 366.74C71.9967 367.388 72.3221 368.024 72.6932 368.586C74.5491 371.395 77.731 373.363 81.1543 374.489C81.3723 374.561 81.5668 374.625 81.7446 374.682C81.6462 376.844 81.2951 378.941 80.176 380.857C79.2604 382.426 77.8886 383.742 76.8444 385.245C74.9538 387.964 74.2037 391.182 73.6458 394.344C71.4914 406.556 71.7284 419.007 70.1341 431.288C69.7809 434.006 69.2956 436.821 67.5829 439.088C66.3397 440.735 64.4603 442.091 63.9483 444.025C63.4586 445.876 64.4827 447.751 64.6705 449.645C65.1646 454.636 64.116 459.079 64.6056 467.594C65.1467 467.591 66.3083 468.274 66.5152 467.219C66.6057 466.756 66.6549 466.187 66.6773 465.555C66.7343 466.497 66.7701 467.442 66.741 468.393C66.6997 469.719 66.6896 471.115 67.3973 472.281C68.399 473.933 70.578 474.703 72.6407 475.059C76.9908 475.808 82.7072 475.561 86.6794 473.806C87.1333 473.606 87.6152 473.352 87.7795 472.924C87.9282 472.536 87.7717 472.114 87.6253 471.726C86.9545 469.95 83.018 467.649 82.4232 465.802C80.4343 459.63 82.3908 453.628 83.3299 447.421C85.6654 431.984 90.6975 416.991 95.7095 402.072C97.1987 397.64 98.6901 393.204 100.528 388.878C102.125 385.121 103.726 381.525 104.892 377.795C104.925 378.085 104.95 378.376 104.955 378.668C105.027 382.88 101.759 386.556 100.919 390.701C100.176 394.37 101.38 398.097 102.28 401.738C104.562 410.961 104.931 420.465 105.291 429.906C105.374 432.068 105.453 434.263 104.875 436.364C104.168 438.937 102.513 441.234 101.749 443.794C101.308 445.271 101.207 446.816 101.399 448.333C101.118 451.296 101.656 454.874 101.995 457.237C102.312 459.449 102.791 461.641 103.339 463.816C103.447 464.245 103.566 464.69 103.877 465.031C104.186 465.372 104.746 465.574 105.185 465.374C104.712 462.017 104.275 458.548 104.716 455.223C105.022 455.543 105.342 455.853 105.687 456.143C106.561 456.878 107.577 457.558 108.014 458.557C108.362 459.352 108.288 460.237 108.217 461.088C107.963 464.13 107.87 467.402 109.704 469.974C111.31 472.228 114.203 473.566 117.153 473.997C120.102 474.428 125.168 473.943 128.031 473.175C129.101 472.888 129.387 472.535 129.762 472.044C130.243 471.411 130.158 470.443 129.613 469.853C127.39 467.45 123.147 465.449 121.811 461.128C119.35 453.165 118.001 446.263 118.411 439.388C118.648 435.416 119.726 433.648 120.387 430.149C121.626 423.59 122.459 416.969 122.881 410.328C123.241 404.674 123.308 399.011 123.509 393.352C123.739 386.819 124.733 380.563 125.771 374.249C126.513 374.117 127.251 373.987 128.032 373.838C127.969 365.622 131.529 357.775 133.378 349.727C135.451 340.704 137.476 330.09 136.578 320.953C136.306 318.191 135.733 313.459 135.255 309.104C137.584 308.23 139.874 307.198 142.114 305.982C139.24 303.594 137.889 295.009 136.926 290.219C140.921 283.067 147.436 272.341 149.659 266.305C151.437 261.472 139.485 239.093 136.588 225.35ZM135.648 262.507C135.884 263.835 134.066 266.735 131.988 270.011C131.792 268.794 131.621 267.547 131.494 266.238C131.773 262.411 132.198 258.593 132.804 254.796C133.846 257.078 135.252 260.277 135.648 262.507ZM68.4337 205.543C68.1296 205.909 67.6868 206.165 67.3559 206.512C67.2385 206.636 67.1603 206.771 67.0764 206.905C67.0216 206.834 66.9635 206.763 66.9143 206.691C65.5928 204.727 65.4397 202.173 66.5197 200.094C67.5996 198.015 69.8815 196.473 72.4115 196.111C70.2448 197.608 68.9178 200.034 68.9278 202.483C68.9334 203.534 69.1347 204.699 68.4337 205.543ZM69.9799 273.097C69.8647 272.521 70.3689 271.814 70.9235 271.988C69.1425 270.876 69.1794 268.271 69.5427 266.183C70.4818 260.77 72.1667 255.53 74.3222 250.481C77.6192 255.939 81.1487 261.207 81.5512 267.423C81.5512 267.425 81.5512 267.428 81.5512 267.428C81.2862 267.995 81.0402 268.571 80.8312 269.167C80.3281 270.604 80.0508 272.12 79.7836 273.634C78.9306 275.677 77.9367 277.792 77.1764 279.505C75.1271 277.823 73.0767 276.142 71.0274 274.461C70.5758 274.09 70.0961 273.673 69.9799 273.097Z" fill="white"/>
<path d="M249.48 258.885C248.575 252.783 248.057 246.171 246.091 240.256C245.715 239.126 245.111 238.245 244.36 237.58C245.037 237.01 245.662 236.392 246.216 235.722C246.488 235.393 246.752 235.033 246.787 234.626C246.842 233.987 246.331 233.438 245.941 232.9C243.358 229.335 245.468 224.137 242.758 220.649C241.935 219.59 240.738 218.802 239.902 217.751C238.367 215.818 238.128 213.095 236.092 211.576C234.775 210.593 232.204 210.062 229.757 210.14C229.711 209.546 229.541 208.982 229.129 208.511C227.741 206.923 224.843 207.548 222.869 206.576C222.614 206.45 222.361 206.282 222.263 206.037C222.069 205.556 222.535 205.085 222.708 204.597C223.212 203.161 221.243 202.144 219.966 201.165C217.868 199.555 217.244 196.841 217.499 194.379C217.754 191.917 218.742 189.569 219.334 187.154C220.396 182.817 220.156 178.23 218.645 174.001C218.055 172.348 217.273 170.749 216.316 169.24C214.838 166.91 212.953 164.81 211.076 162.722C210.292 161.85 209.476 160.954 208.363 160.445C206.781 159.721 204.833 159.887 203.25 159.166C202.804 158.963 202.397 158.693 201.935 158.519C201.248 158.26 200.484 158.229 199.738 158.201C197.585 158.122 194.798 157.899 192.789 158.762C191.058 159.506 191.562 160.272 189.739 160.294C185.705 160.343 182.569 160.984 180.124 164.275C177.813 167.386 177.136 171.204 175.934 174.782C174.202 179.935 171.256 185.079 172.151 190.4C172.252 191.004 172.403 191.615 172.297 192.218C172.17 192.94 171.689 193.566 171.279 194.198C169.499 196.94 168.893 200.275 169.61 203.38C169.815 204.266 170.124 205.183 169.859 206.056C169.517 207.185 168.317 207.923 167.68 208.944C167.041 209.965 167.551 211.733 168.845 211.56C167.816 211.852 167.371 212.914 167.54 213.884C167.435 213.929 167.329 213.978 167.227 214.017C165.095 214.837 162.825 215.505 160.917 216.717C157.821 218.683 156.074 221.963 155.172 225.262C154.159 228.966 154.055 232.868 154.87 236.611C155.225 238.243 155.75 239.951 155.173 241.532C154.928 242.205 154.483 242.87 154.613 243.568C154.723 244.162 155.225 244.625 155.574 245.141C156.258 246.156 156.338 247.477 155.777 248.552C156.477 249.2 157.292 249.736 158.169 250.176C158.189 250.501 158.209 250.828 158.228 251.159C158.505 256.019 159.119 260.868 160.064 265.658C160.368 267.199 160.708 268.754 160.653 270.314C160.586 272.225 159.932 274.038 159.572 275.906C158.266 282.689 160.877 289.672 161.426 296.617C161.693 300 161.469 303.403 161.876 306.775C162.139 308.96 162.718 311.181 163.761 313.108C162.939 317.016 162.42 320.981 162.454 324.996C162.498 330.075 163.411 335.096 164.136 340.12C166.114 353.844 166.691 367.782 165.854 381.63C165.794 382.636 165.744 383.724 166.284 384.566C166.772 385.326 167.638 385.72 168.47 386.033C169.191 386.305 169.924 386.537 170.66 386.753C170.377 387.64 170.155 388.547 169.958 389.448C166.3 406.19 169.347 423.538 167.297 440.498C166.781 444.777 165.939 449.024 164.781 453.201C163.875 456.469 162.769 459.721 162.507 463.079C162.243 466.438 162.911 469.993 165.222 472.65C166.145 473.71 167.401 474.64 168.893 474.799C170.262 474.945 171.603 474.427 172.846 473.891C175.74 472.645 178.759 471.037 179.929 468.361C180.581 466.867 180.57 465.212 180.458 463.611C179.988 456.874 177.941 449.927 180.321 443.521C180.668 442.588 181.111 441.643 181.026 440.663C180.969 440.008 180.679 439.389 180.536 438.744C180.205 437.253 180.679 435.722 181.155 434.263C183.29 427.73 185.565 421.233 187.538 414.659C189.285 408.835 190.802 402.945 191.737 396.969C192.13 394.456 192.339 391.974 192.631 389.508C196.422 389.792 200.225 390.016 204.019 390.111C202.59 405.92 204.891 422.737 201.145 438.056C200.979 438.731 200.803 439.411 200.808 440.102C200.812 440.591 200.907 441.075 200.942 441.562C201.08 443.408 199.847 448.102 199.203 449.861C195.962 458.715 191.432 466.459 192.888 472.396C193.11 473.298 192.803 474.408 193.636 474.954C194.048 475.224 194.577 475.292 195.084 475.339C199.785 475.774 204.616 475.019 208.875 473.184C209.832 472.771 210.796 472.277 211.389 471.488C211.954 470.736 212.113 469.805 212.259 468.908C213.199 463.115 214.142 457.279 213.83 451.432C213.641 447.873 212.987 444.312 213.357 440.764C213.951 435.061 217.12 429.877 219.704 424.636C224.168 415.582 227.022 405.894 228.125 396.047C228.413 393.479 228.548 390.793 228.09 388.259C231.142 387.615 234.16 386.792 237.129 385.724C233.037 376.391 233.625 365.691 234.291 355.475C234.857 346.811 235.423 338.146 235.988 329.482C236.242 325.599 236.495 321.698 236.174 317.821C235.903 314.554 235.227 311.336 234.41 308.167C233.936 306.328 233.397 304.486 232.685 302.732C232.701 302.699 232.715 302.665 232.732 302.632C234.207 299.758 236.431 297.253 238.298 294.567C240.393 291.553 242.038 288.309 243.676 285.076C244.728 283 245.78 280.925 246.831 278.849C247.817 276.903 248.808 274.945 249.416 272.878C250.75 268.338 250.17 263.54 249.48 258.885ZM236.261 270.391C235.761 271.939 235.261 273.487 234.761 275.034C233.521 278.871 232.267 282.727 230.593 286.421C228.772 283.527 227.08 280.573 225.769 277.47C223.726 272.635 222.631 267.373 223.552 262.271C223.972 259.945 224.799 257.696 225.625 255.459C227.177 251.247 229.081 246.864 230.55 242.399C230.572 243.103 230.725 243.814 230.896 244.506C232.718 251.877 234.541 259.248 236.363 266.618C236.532 267.301 236.702 267.994 236.658 268.692C236.622 269.271 236.441 269.834 236.261 270.391Z" fill="white"/>
<path d="M360.561 257.729C359.05 252.057 347.77 226.475 345.385 221.248C343.987 218.186 341.74 216.714 339.238 216.366C337.789 215.175 336.106 214.198 334.458 213.265C331.25 211.449 326.647 208.541 323.853 204.189C323.927 202.258 324.153 200.353 324.832 198.518C325.485 196.755 325.604 195.938 326.076 194.13C326.391 194.826 327.605 194.813 328.193 194.277C328.781 193.741 328.906 192.936 329.002 192.19C329.19 190.73 329.56 188.171 329.748 186.711C329.822 186.141 329.889 185.535 329.613 185.017C329.483 184.774 329.28 184.556 329.224 184.291C329.163 184.003 329.286 183.713 329.394 183.436C330.441 180.742 330.133 177.787 329.601 174.975C328.968 171.629 328.035 168.328 326.817 165.114C326.581 165.384 326.097 165.375 325.77 165.196C325.443 165.017 325.23 164.715 325.009 164.435C324.018 163.18 322.649 162.167 321.084 161.533C320.774 162.088 319.914 162.199 319.252 162.017C318.591 161.834 318.021 161.444 317.369 161.235C316.301 160.893 315.093 161.075 314.066 161.505C313.039 161.935 312.158 162.595 311.289 163.248C311.16 162.95 311.033 162.651 310.904 162.353C309.33 163.217 307.921 164.321 306.758 165.603C306.374 165.117 305.51 165.171 304.967 165.513C304.423 165.855 304.084 166.394 303.651 166.845C303.06 167.458 302.288 167.912 301.683 168.514C301.079 169.116 300.63 170.133 300.525 170.937C299.927 175.513 299.804 180.139 300.157 184.736C299.773 184.31 299.276 183.839 298.669 183.909C297.889 183.999 297.608 184.872 297.552 185.573C297.368 187.884 297.676 190.226 298.458 192.435C298.854 193.558 299.561 194.794 300.852 195.028C301.025 195.059 301.215 195.068 301.367 194.989C301.51 194.915 301.595 194.777 301.672 194.645C301.888 194.279 302.102 193.914 302.318 193.548C302.099 195.317 302.765 197.076 302.836 198.855C302.922 200.989 302.153 203.067 301.393 205.092C301.178 205.666 300.963 206.239 300.748 206.813C300.334 207.06 299.914 207.296 299.498 207.511C293.973 210.353 288.413 210.139 283.06 212.859C279.084 214.001 274.997 215.375 272.453 218.3C270.438 220.616 269.682 223.588 268.993 226.456C266.983 234.804 264.678 245.744 263.882 254.254C263.582 257.472 263.375 260.887 261.329 263.548C260.63 264.456 259.714 265.284 259.425 266.355C259.655 267.109 261.179 267.097 261.278 267.873C261.323 268.223 261.027 268.523 260.827 268.826C260.377 269.509 260.385 270.348 260.406 271.14C260.5 274.591 260.593 278.042 260.687 281.492C261.048 294.82 262.733 308.038 260.934 321.272C262.313 321.602 263.715 321.853 265.128 322.033C265.005 323.812 264.608 325.53 264.077 327.371C263.553 329.185 262.991 330.994 262.653 332.845C262.379 334.34 262.255 335.886 262.647 337.359C263.039 338.833 264.005 340.237 265.49 340.965C266.94 341.677 268.738 341.694 270.132 342.491C271.052 343.017 271.707 343.833 272.492 344.511C273.164 345.091 274.032 345.589 274.942 345.615C275.15 348.256 275.294 350.901 275.302 353.553C275.319 359.704 274.586 365.894 272.312 371.729C271.597 373.565 270.726 375.386 270.544 377.323C270.304 379.891 271.237 382.735 269.671 384.899C269.188 385.567 268.476 386.144 268.297 386.924C268.172 387.467 268.33 388.026 268.397 388.578C268.623 390.445 267.808 392.268 267.112 394.04C263.437 403.407 262.797 413.47 262.002 423.371C261.488 429.782 260.607 436.769 255.514 441.304C256.603 441.42 257.538 442.27 257.648 443.245C254.605 442.71 252.711 446.474 253.586 449.136C254.348 451.458 256.216 453.388 257.203 455.625C257.131 455.862 257.059 456.096 256.989 456.318C255.953 459.631 255.077 462.983 254.361 466.363C254.071 467.735 253.806 469.132 253.963 470.521C254.121 471.91 254.752 473.31 255.971 474.182C256.524 474.577 257.175 474.85 257.846 475.051C260.074 475.719 262.493 475.616 264.828 475.383C266.526 475.213 268.235 474.973 269.818 474.396C271.4 473.818 272.861 472.872 273.72 471.551C274.224 470.775 274.506 469.896 274.665 469.009C275.421 464.804 273.517 460.634 272.545 456.465C272.535 456.421 272.523 456.376 272.513 456.332C272.688 456.329 272.862 456.325 273.036 456.322C275.763 452.228 278.491 448.133 281.218 444.039C281.716 443.293 282.231 442.466 282.082 441.607C281.973 440.972 281.512 440.431 281.294 439.818C280.601 437.87 282.421 436.023 283.646 434.298C285.346 431.904 286.023 429.059 286.669 426.282C290.158 411.306 293.647 396.33 297.135 381.354C297.705 378.904 298.28 376.444 299.255 374.098C299.636 373.18 300.075 372.283 300.499 371.38C301.31 377.512 302.179 383.64 301.852 389.795C301.348 399.284 298.003 408.625 298.692 418.105C298.867 420.499 299.233 423.129 297.697 425.097C297.24 425.682 296.63 426.18 296.308 426.834C295.903 427.655 296.013 428.597 296.13 429.489C296.594 433.013 297.058 436.537 297.522 440.062C297.634 440.909 297.778 441.79 298.297 442.497C298.038 443.181 297.811 443.877 297.607 444.575C296.437 448.584 295.829 452.723 295.8 456.867C299.168 458.037 302.718 459.228 306.297 458.785C306.231 458.209 306.289 457.622 306.468 457.066C309.114 457.503 311.216 459.238 313.576 460.394C315.495 461.334 317.609 461.898 319.705 462.456C322.648 463.239 325.626 464.027 328.693 464.161C331.596 464.288 334.503 463.82 337.277 463.045C338.029 462.835 338.81 462.581 339.332 462.052C340.294 461.076 339.997 459.479 339.077 458.471C338.157 457.463 336.779 456.897 335.46 456.347C331.854 454.844 328.297 453.201 325.103 451.079C322.737 449.507 319.93 447.415 318.397 445.001C319.621 444.037 320.422 442.651 320.227 441.223C320.047 439.902 319.071 438.707 319.126 437.377C319.208 435.393 321.501 433.995 321.92 432.045C322.142 431.012 321.809 429.958 321.557 428.931C320.688 425.401 320.759 421.689 321.765 418.188C322.347 416.157 323.245 414.066 322.707 412.025C322.45 411.052 321.88 410.169 321.549 409.215C319.637 403.712 325.966 398.224 325.045 392.521C324.808 391.052 324.118 389.444 324.983 388.178C325.482 387.447 326.391 387.034 327.073 386.432C328.37 385.287 328.744 383.57 329.056 381.963C330.393 375.066 331.711 368.165 333.012 361.262C334.856 351.462 336.653 341.655 338.424 331.844C339.077 331.581 339.731 331.306 340.387 331.01C340.925 330.767 341.489 330.489 341.791 329.995C342.132 329.437 342.01 328.743 341.979 328.097C341.53 318.839 340.715 312.03 339.898 306.095C341.046 306.766 342.268 307.377 343.586 307.892C346.828 301.048 347.538 302.324 350.78 295.48C353.811 289.083 361.403 279.307 362.04 272.382C362.676 265.512 362.348 264.431 360.561 257.729ZM284.852 271.139C284.36 277.002 281.754 282.333 279.852 287.891C279.917 286.153 279.982 284.414 280.046 282.676C280.193 278.73 280.34 274.775 280.936 270.863C281.316 268.364 281.879 265.889 282.513 263.431C282.628 262.984 282.751 262.527 282.872 262.072C284.079 265.639 285.035 268.958 284.852 271.139ZM343.976 274.089C341.933 277.724 339.677 281.191 337.536 284.279C337.4 280.339 337.448 275.951 337.771 270.722C337.959 267.68 338.707 263.326 339.619 258.444C341.139 260.736 342.658 262.969 344.107 265.09C344.793 266.096 345.511 267.152 345.579 268.329C345.666 269.876 344.754 272.704 343.976 274.089Z" fill="white"/>
<path d="M453.328 314.245C454.953 301.686 456.579 289.127 458.204 276.568C458.268 276.077 458.332 275.577 458.238 275.09C458 273.846 456.794 272.888 456.538 271.647C456.301 270.496 456.922 269.363 457.288 268.24C457.653 267.116 457.652 265.685 456.574 265.023C455.275 252.798 453.781 240.59 452.094 228.404C451.568 224.599 451.729 218.89 447.047 217.256C445.489 216.712 444.124 216.69 442.915 217.05C442.968 216.749 443.016 216.448 443.07 216.147C434.575 215.113 426.934 209.665 423.914 202.487C423.733 202.056 423.566 201.618 423.402 201.18C424.918 198.963 425.83 196.399 426.699 193.895C427.527 194.267 428.444 193.556 428.957 192.865C431.011 190.101 431.588 186.499 430.487 183.33C430.399 183.074 430.287 182.813 430.137 182.58C430.239 181.992 430.291 181.398 430.291 180.803C430.291 179.817 430.195 178.711 430.925 177.972C431.116 177.778 431.358 177.62 431.501 177.396C431.66 177.147 431.677 176.847 431.673 176.56C431.652 175.028 431.113 173.505 430.145 172.242C429.554 171.472 428.809 170.796 428.309 169.976C427.808 169.157 427.586 168.113 428.104 167.302C426.402 166.791 424.699 166.281 422.995 165.77C422.378 165.585 421.734 165.385 421.29 164.96C420.845 164.535 420.685 163.811 421.121 163.378C420.244 163.914 419.017 163.95 418.102 163.465C417.187 162.981 416.631 162.001 416.735 161.055C414.786 161.42 412.835 161.785 410.885 162.149C408.634 162.57 406.272 163.04 404.554 164.406C403.309 165.396 402.53 166.759 401.504 167.932C400.632 168.927 399.575 169.792 398.797 170.848C397.348 172.814 396.997 175.247 396.684 177.584C396.466 179.21 396.257 180.906 396.881 182.445C396.368 182.343 396.111 182.981 396.093 183.451C396.024 185.224 396.134 187.002 396.42 188.758C396.56 189.618 396.752 190.496 397.272 191.23C397.793 191.964 398.712 192.53 399.68 192.459C400.11 194.147 400.551 195.849 401.228 197.465C401.105 197.916 400.992 198.369 400.848 198.815C400.771 199.051 400.684 199.297 400.484 199.466C400.249 199.664 399.908 199.714 399.62 199.843C398.862 200.182 398.569 200.997 398.35 201.729C397.924 203.146 397.499 204.562 397.073 205.979C390.562 207.248 384.16 208.967 377.945 211.116C375.892 210.828 373.793 211.403 372.331 213.344C371.84 213.995 371.586 214.763 371.359 215.521C367.659 227.874 369.303 241.034 366.589 253.589C366.202 255.377 365.779 257.4 366.965 258.88C367.277 259.27 367.7 259.617 367.82 260.084C368.024 260.88 367.29 261.589 366.87 262.315C365.838 264.1 366.705 266.296 366.242 268.263C366.098 268.877 365.824 269.463 365.692 270.079C365.553 270.731 365.577 271.401 365.6 272.065C365.673 274.05 365.745 276.036 365.817 278.021C366.204 288.655 366.593 299.311 368.178 309.855C369.489 309.878 370.799 309.766 372.088 309.552C372.578 311.973 373.622 314.432 374.208 316.153C374.349 316.568 374.528 317.012 374.797 317.369C374.407 319.731 374.017 322.063 373.635 324.329C374.411 324.921 375.24 325.434 376.105 325.889C374.988 332.903 375.919 341.013 376.076 347.861C376.293 357.339 376.995 366.808 378.18 376.228C378.395 377.935 378.643 379.692 379.587 381.189C380.383 382.453 381.702 383.672 381.433 385.104C381.319 385.715 380.919 386.25 380.691 386.835C380.355 387.701 380.406 388.645 380.462 389.561C380.626 392.262 380.791 394.962 380.955 397.662C381.319 403.652 381.685 409.642 382.049 415.631C382.375 420.968 382.654 426.537 380.232 431.423C379.837 432.218 379.363 433.05 379.505 433.91C379.666 434.886 380.576 435.618 380.997 436.53C382.261 439.265 378.951 442.828 381.028 445.132C381.201 445.324 381.408 445.479 381.625 445.621C380.763 446.42 379.8 447.141 378.965 447.752C374.403 451.088 368.544 452.551 362.979 454.281C361.76 454.66 360.515 455.072 359.553 455.842C358.133 456.979 357.528 458.868 358.062 460.505C358.17 460.839 358.33 461.172 358.608 461.415C359.029 461.781 359.645 461.887 360.224 461.963C366.333 462.768 372.592 462.148 378.588 460.83C384.585 459.512 390.362 457.51 396.118 455.514C395.746 456.001 396.088 456.716 396.657 457.014C397.226 457.312 397.927 457.301 398.584 457.251C400.822 457.083 403.009 456.577 405.182 456.073C405.445 456.012 405.722 455.944 405.909 455.767C406.099 455.587 406.158 455.33 406.207 455.087C406.86 451.899 407.283 448.64 406.893 445.418C406.645 443.377 406.05 441.345 405.043 439.507C405.979 438.535 406.82 437.49 407.518 436.363C404.079 434.321 402.784 429.851 404.68 426.572C405.889 424.483 408.203 422.83 408.545 420.499C408.817 418.644 407.752 416.873 406.933 415.152C404.28 409.58 404.026 403.125 406.236 397.4C406.818 395.893 407.57 394.269 406.985 392.763C406.547 391.635 405.431 390.815 404.898 389.721C404.365 388.625 404.469 387.377 404.583 386.186C406.053 370.782 407.529 355.347 410.729 340.155C416.003 360.868 421.286 381.621 424.252 402.698C424.616 405.288 425.264 408.305 427.887 409.451C423.649 414.229 425.156 421.136 426.873 427.039C427.956 430.755 429.037 434.472 430.119 438.189C430.425 439.24 430.733 440.331 430.517 441.4C430.363 442.163 429.948 442.872 429.822 443.64C429.679 444.511 429.917 445.393 430.17 446.243C431.398 450.353 433.067 454.352 435.102 458.197C435.063 459.201 435.016 460.221 434.802 461.225C434.252 463.815 433.221 466.325 431.746 468.608C431.291 469.312 430.791 470.004 430.511 470.777C430.121 471.857 430.187 473.029 430.412 474.146C430.671 475.432 431.193 476.761 432.344 477.566C433.571 478.425 435.252 478.514 436.809 478.461C440.305 478.342 443.822 477.67 446.887 476.16C448.079 475.573 449.226 474.834 449.939 473.798C450.507 472.972 450.765 472.009 450.967 471.057C451.984 466.277 451.787 461.293 450.396 456.589C450.268 456.153 450.121 455.719 449.957 455.291C450.59 455.489 451.193 455.76 451.738 456.13C453.291 449.254 454.844 442.377 456.396 435.501C454.255 434.682 454.055 432.088 454.134 430.007C454.325 424.881 454.164 419.745 453.65 414.637C452.32 401.426 448.646 388.489 446.864 375.321C444.94 361.102 445.233 346.728 445.466 332.407C445.51 329.661 445.494 326.756 444.456 324.229C445.85 323.849 447.24 323.456 448.62 323.038C448.138 321.721 447.693 320.412 447.277 319.141C448.563 317.671 449.745 315.67 450.511 313.515C451.444 313.783 452.381 314.033 453.328 314.245Z" fill="white"/>
<path d="M549.839 281.26C547.66 275.144 543.908 269.527 542.003 263.338C539.25 254.4 540.518 244.926 540.087 235.663C539.979 233.355 539.751 231 538.708 228.888C538.328 228.119 537.843 227.387 537.577 226.58C537.106 225.154 537.359 223.607 536.974 222.16C536.673 221.03 535.594 219.627 534.176 218.392C535.795 214.853 536.854 210.656 534.728 207.34C533.711 205.753 532.035 204.513 531.313 202.801C529.861 199.36 532.747 195.713 532.983 192.041C533.126 189.808 532.274 187.629 531.394 185.535C529.712 181.537 527.878 177.59 525.896 173.703C524.605 171.171 523.212 168.613 521.026 166.633C520.03 165.73 518.822 164.939 517.425 164.724C514.058 164.205 512.376 165.377 510.201 167.075C508.823 164.6 506.128 164.827 503.534 165.369C500.936 165.912 498.915 167.709 497.237 169.562C496.071 170.85 494.992 172.21 494.162 173.692C492.968 175.827 492.319 178.164 491.494 180.434C489.902 184.811 487.633 188.98 486.203 193.401C484.774 197.822 484.228 202.673 486.101 206.96C486.287 207.388 486.502 207.832 486.446 208.289C486.392 208.728 486.097 209.111 485.791 209.457C484.645 210.749 483.174 211.868 482.505 213.405C481.676 215.312 482.246 217.434 482.305 219.494C479.622 220.98 477.67 222.807 476.096 225.305C473.724 229.065 472.202 233.202 470.869 237.351C468.157 245.793 466.168 254.421 464.922 263.134C464.707 264.648 464.539 266.289 465.4 267.607C465.588 267.895 465.827 268.172 465.876 268.502C466.017 269.438 464.601 270.275 465.039 271.135C466.043 271.245 466.785 272.075 467.069 272.944C467.353 273.813 467.288 274.737 467.336 275.641C467.433 277.501 468.024 279.339 469.043 280.962C470.168 282.752 471.876 284.566 471.419 286.578C472.029 285.6 472.767 284.692 473.578 283.841C474.083 284.605 474.66 285.338 475.257 286.04C478.05 289.325 481.379 292.237 485.083 294.697C484.406 295.855 483.76 297.023 483.187 298.212C477.35 310.325 479.239 324.198 481.918 337.169C484.597 350.14 487.962 363.488 484.769 376.365C488.105 377.247 491.457 378.124 494.825 378.927C494.767 381.376 494.489 383.821 493.97 386.226C493.252 389.549 492.099 392.795 491.545 396.143C489.424 408.965 496.176 421.434 499.726 434C500.683 437.39 501.323 441.264 499.113 444.148C498.138 445.42 496.674 446.387 495.938 447.781C494.68 450.166 495.902 452.936 496.792 455.45C498.205 459.441 498.941 462.97 498.997 467.662C499.019 469.594 500.938 469.726 502.091 469.576C503.908 469.107 503.71 465.05 502.846 459.921C504.427 462.443 504.465 464.141 505.536 467.989C505.741 468.722 506.008 469.477 506.601 470.015C507.316 470.662 508.371 470.881 509.365 471.071C517.714 472.666 526.412 474.259 534.699 472.422C534.44 472.271 534.181 472.121 533.922 471.97C535.17 472.029 536.497 472.033 537.925 471.969C539.382 468.973 528.482 463.14 528.234 458.668C527.613 447.475 527.86 436.256 528.838 425.08C529.688 415.373 533.081 406.009 536.579 396.79C537.737 393.741 538.919 390.671 540.77 387.905C542.364 385.521 544.46 383.342 545.351 380.685C546.027 378.669 545.906 376.529 545.243 374.498C545.659 374.149 546.022 373.759 546.205 373.281C546.552 372.379 546.211 371.397 545.939 370.474C544.369 365.133 545.196 359.5 545.7 353.996C546.972 340.107 546.075 326.066 543.095 312.388C544.105 309.762 545.535 307.269 546.363 304.563C547.603 300.512 547.428 296.146 546.984 291.919C546.754 289.748 546.649 287.116 546.164 284.646C547.252 284.191 548.293 283.648 549.251 283C549.539 282.804 549.836 282.583 549.948 282.275C550.069 281.945 549.956 281.589 549.839 281.26ZM513.199 421.374C513.274 422.178 513.343 422.981 513.409 423.783C513.322 422.981 513.257 422.178 513.199 421.374ZM519.59 383.097C518.17 385.976 516.393 388.713 515.081 391.631C515.375 389.98 515.766 388.348 516.34 386.758C516.897 385.219 517.624 383.711 518.197 382.177C518.808 382.177 519.418 382.168 520.029 382.15C519.883 382.466 519.745 382.785 519.59 383.097ZM534.162 210.564C534.75 212.074 534.71 213.73 534.377 215.301C534.204 216.119 533.716 217.043 533.003 217.463C532.339 216.992 531.634 216.577 530.917 216.243C532.248 213.374 532.189 209.982 530.594 207.213C532.292 207.71 533.575 209.054 534.162 210.564ZM492.329 279.122C492.013 281.619 491.13 283.966 489.993 286.249C488.448 284.358 486.902 282.466 485.358 280.574C484.75 279.829 484.207 278.983 483.64 278.152C484.115 278.039 484.588 277.92 485.072 277.841C485.734 276.858 485.115 275.511 484.075 274.839C483.365 274.38 482.451 274.107 482 273.436C481.547 272.765 482.199 271.587 482.994 271.918C481.516 271.043 481.757 269.073 482.172 267.532C482.933 264.701 483.695 261.87 484.456 259.039C484.916 257.333 485.382 255.62 485.933 253.934C487.508 257.397 488.475 261.286 489.698 264.76C491.34 269.423 492.945 274.264 492.329 279.122Z" fill="white"/>
<path d="M105.184 465.376L106.438 465.055C106.438 465.055 105.786 460.055 106.438 455.847C107.09 451.639 104.206 451.347 104.206 451.347L103.084 453.18L105.184 465.376Z" fill="white"/>
</g>
<rect width="611" height="632.821" fill="black" fill-opacity="0.5"/>
<rect width="20.0454" height="42.3182" transform="translate(235.527 548.336)" fill="white"/>
<path d="M244.336 581.154L249.35 581.154C249.699 581.154 249.955 581.073 250.117 580.911C250.267 580.736 250.342 580.449 250.342 580.05L250.342 578.834L252.549 578.834L252.549 580.481C252.549 582.688 251.477 583.792 249.331 583.792L244.336 583.792L244.336 585.027L242.184 585.027L242.184 583.792L239.621 583.792L239.621 581.154L242.184 581.154L242.184 578.834L244.336 578.834L244.336 581.154ZM242.035 571.113C242.035 570.327 242.209 569.629 242.559 569.018C242.895 568.407 243.401 567.933 244.074 567.596C244.735 567.247 245.533 567.072 246.469 567.072L252.549 567.072L252.549 569.691L246.824 569.691C246.001 569.691 245.371 569.897 244.935 570.309C244.486 570.72 244.261 571.281 244.261 571.992C244.261 572.716 244.486 573.29 244.935 573.714C245.371 574.125 246.001 574.331 246.824 574.331L252.549 574.331L252.549 576.95L238.705 576.95L238.705 574.331L243.475 574.331C243.026 573.994 242.677 573.545 242.428 572.984C242.166 572.423 242.035 571.799 242.035 571.113ZM247.142 554.946C247.517 554.946 247.853 554.971 248.153 555.021L248.153 562.598C248.901 562.536 249.487 562.274 249.911 561.812C250.335 561.351 250.547 560.783 250.547 560.11C250.547 559.137 250.13 558.445 249.294 558.033L249.294 555.208C250.292 555.507 251.115 556.081 251.764 556.929C252.4 557.777 252.718 558.819 252.718 560.054C252.718 561.051 252.499 561.949 252.063 562.748C251.614 563.533 250.984 564.151 250.173 564.6C249.363 565.036 248.427 565.255 247.367 565.255C246.294 565.255 245.353 565.036 244.542 564.6C243.731 564.163 243.107 563.552 242.671 562.766C242.234 561.981 242.016 561.076 242.016 560.054C242.016 559.068 242.228 558.189 242.652 557.416C243.076 556.63 243.681 556.025 244.467 555.601C245.24 555.164 246.132 554.946 247.142 554.946ZM246.394 557.659C245.72 557.671 245.184 557.914 244.785 558.388C244.373 558.862 244.168 559.442 244.168 560.128C244.168 560.777 244.367 561.326 244.766 561.775C245.153 562.211 245.696 562.479 246.394 562.579L246.394 557.659Z" fill="black"/>
<path d="M251.678 529.815C253.342 530.125 254.711 530.957 255.783 532.311C256.855 533.665 257.391 535.217 257.391 536.966C257.391 538.546 256.996 539.943 256.206 541.156C255.444 542.341 254.33 543.272 252.863 543.949C251.396 544.626 249.661 544.964 247.658 544.964H234.92V515.426H247.108C249.111 515.426 250.832 515.751 252.27 516.4C253.737 517.049 254.838 517.951 255.571 519.108C256.333 520.265 256.714 521.577 256.714 523.044C256.714 524.765 256.248 526.203 255.317 527.36C254.415 528.517 253.201 529.335 251.678 529.815ZM240.844 527.614H246.261C247.672 527.614 248.758 527.304 249.52 526.683C250.281 526.034 250.662 525.117 250.662 523.932C250.662 522.747 250.281 521.83 249.52 521.182C248.758 520.533 247.672 520.208 246.261 520.208H240.844V527.614ZM246.811 540.14C248.25 540.14 249.365 539.802 250.154 539.125C250.973 538.447 251.382 537.488 251.382 536.247C251.382 534.977 250.959 533.99 250.112 533.285C249.266 532.551 248.123 532.184 246.684 532.184H240.844V540.14H246.811ZM300.489 521.182C302.266 521.182 303.846 521.577 305.228 522.367C306.611 523.128 307.683 524.271 308.444 525.794C309.234 527.29 309.629 529.095 309.629 531.211V544.964H303.705V532.015C303.705 530.153 303.239 528.728 302.308 527.741C301.377 526.725 300.108 526.217 298.5 526.217C296.863 526.217 295.566 526.725 294.606 527.741C293.675 528.728 293.21 530.153 293.21 532.015V544.964H287.285V513.649H293.21V524.44C293.972 523.424 294.987 522.635 296.257 522.07C297.526 521.478 298.937 521.182 300.489 521.182ZM316.998 518.727C315.954 518.727 315.08 518.403 314.375 517.754C313.698 517.077 313.359 516.244 313.359 515.257C313.359 514.27 313.698 513.451 314.375 512.803C315.08 512.126 315.954 511.787 316.998 511.787C318.042 511.787 318.903 512.126 319.58 512.803C320.285 513.451 320.638 514.27 320.638 515.257C320.638 516.244 320.285 517.077 319.58 517.754C318.903 518.403 318.042 518.727 316.998 518.727ZM319.918 521.52V544.964H313.994V521.52H319.918ZM337.494 521.182C340.287 521.182 342.544 522.07 344.265 523.848C345.986 525.597 346.846 528.051 346.846 531.211V544.964H340.922V532.015C340.922 530.153 340.456 528.728 339.525 527.741C338.594 526.725 337.325 526.217 335.717 526.217C334.08 526.217 332.782 526.725 331.823 527.741C330.892 528.728 330.427 530.153 330.427 532.015V544.964H324.502V521.52H330.427V524.44C331.217 523.424 332.218 522.635 333.431 522.07C334.673 521.478 336.027 521.182 337.494 521.182ZM349.687 533.158C349.687 530.788 350.153 528.686 351.084 526.852C352.043 525.018 353.341 523.608 354.977 522.62C356.613 521.633 358.433 521.139 360.436 521.139C361.959 521.139 363.412 521.478 364.795 522.155C366.177 522.804 367.277 523.678 368.096 524.779V513.649H374.105V544.964H368.096V541.494C367.362 542.651 366.332 543.582 365.006 544.287C363.68 544.993 362.143 545.345 360.394 545.345C358.419 545.345 356.613 544.837 354.977 543.822C353.341 542.806 352.043 541.381 351.084 539.548C350.153 537.686 349.687 535.556 349.687 533.158ZM368.138 533.242C368.138 531.803 367.856 530.576 367.291 529.561C366.727 528.517 365.966 527.727 365.006 527.191C364.047 526.627 363.017 526.344 361.917 526.344C360.817 526.344 359.801 526.612 358.87 527.148C357.939 527.685 357.177 528.474 356.585 529.518C356.021 530.534 355.739 531.747 355.739 533.158C355.739 534.568 356.021 535.81 356.585 536.882C357.177 537.925 357.939 538.73 358.87 539.294C359.829 539.858 360.845 540.14 361.917 540.14C363.017 540.14 364.047 539.872 365.006 539.336C365.966 538.772 366.727 537.982 367.291 536.966C367.856 535.922 368.138 534.681 368.138 533.242Z" fill="white"/>
<path d="M267.364 581.902C265.687 581.902 264.172 581.615 262.817 581.041C261.485 580.467 260.429 579.64 259.648 578.561C258.867 577.481 258.465 576.207 258.442 574.737H263.609C263.678 575.725 264.022 576.505 264.642 577.08C265.285 577.654 266.158 577.941 267.26 577.941C268.385 577.941 269.269 577.677 269.912 577.148C270.555 576.597 270.877 575.885 270.877 575.013C270.877 574.301 270.659 573.715 270.222 573.256C269.786 572.797 269.235 572.441 268.569 572.188C267.926 571.913 267.031 571.614 265.882 571.293C264.321 570.834 263.046 570.386 262.059 569.949C261.095 569.49 260.256 568.813 259.544 567.917C258.856 566.999 258.511 565.782 258.511 564.266C258.511 562.842 258.867 561.602 259.579 560.546C260.291 559.49 261.29 558.686 262.576 558.135C263.862 557.561 265.331 557.274 266.985 557.274C269.465 557.274 271.474 557.882 273.012 559.099C274.574 560.293 275.435 561.97 275.596 564.128H270.291C270.245 563.302 269.889 562.624 269.224 562.096C268.581 561.545 267.719 561.269 266.64 561.269C265.699 561.269 264.941 561.51 264.367 561.993C263.816 562.475 263.54 563.175 263.54 564.094C263.54 564.737 263.747 565.276 264.16 565.713C264.596 566.126 265.125 566.471 265.745 566.746C266.388 566.999 267.283 567.297 268.431 567.642C269.993 568.101 271.267 568.56 272.255 569.019C273.242 569.479 274.092 570.168 274.804 571.086C275.515 572.005 275.871 573.21 275.871 574.703C275.871 575.989 275.538 577.183 274.873 578.285C274.207 579.387 273.231 580.271 271.945 580.937C270.659 581.58 269.132 581.902 267.364 581.902ZM277.779 572.119C277.779 570.145 278.181 568.422 278.984 566.953C279.788 565.46 280.902 564.312 282.326 563.508C283.749 562.682 285.38 562.268 287.217 562.268C289.582 562.268 291.534 562.865 293.072 564.059C294.634 565.23 295.679 566.884 296.207 569.019H291.006C290.73 568.193 290.259 567.55 289.593 567.091C288.95 566.608 288.147 566.367 287.182 566.367C285.805 566.367 284.714 566.872 283.91 567.883C283.106 568.87 282.704 570.282 282.704 572.119C282.704 573.934 283.106 575.346 283.91 576.356C284.714 577.344 285.805 577.837 287.182 577.837C289.134 577.837 290.409 576.965 291.006 575.22H296.207C295.679 577.286 294.634 578.928 293.072 580.145C291.511 581.362 289.559 581.971 287.217 581.971C285.38 581.971 283.749 581.569 282.326 580.765C280.902 579.939 279.788 578.79 278.984 577.321C278.181 575.828 277.779 574.094 277.779 572.119ZM316.446 571.706C316.446 572.395 316.4 573.015 316.308 573.566H302.357C302.472 574.944 302.955 576.023 303.804 576.804C304.654 577.585 305.699 577.975 306.939 577.975C308.73 577.975 310.004 577.206 310.762 575.667H315.963C315.412 577.504 314.356 579.02 312.794 580.214C311.233 581.385 309.315 581.971 307.042 581.971C305.205 581.971 303.552 581.569 302.082 580.765C300.635 579.939 299.499 578.779 298.672 577.286C297.868 575.794 297.466 574.071 297.466 572.119C297.466 570.145 297.868 568.411 298.672 566.918C299.476 565.426 300.601 564.278 302.047 563.474C303.494 562.67 305.159 562.268 307.042 562.268C308.856 562.268 310.475 562.659 311.899 563.439C313.345 564.22 314.459 565.334 315.24 566.781C316.044 568.204 316.446 569.846 316.446 571.706ZM311.451 570.328C311.428 569.088 310.98 568.101 310.108 567.366C309.235 566.608 308.167 566.229 306.904 566.229C305.71 566.229 304.7 566.597 303.873 567.332C303.069 568.044 302.576 569.042 302.392 570.328H311.451ZM329.507 562.303C331.78 562.303 333.617 563.026 335.018 564.473C336.419 565.896 337.119 567.894 337.119 570.466V581.661H332.297V571.121C332.297 569.605 331.918 568.445 331.16 567.642C330.402 566.815 329.369 566.402 328.06 566.402C326.728 566.402 325.672 566.815 324.891 567.642C324.133 568.445 323.754 569.605 323.754 571.121V581.661H318.932V562.578H323.754V564.955C324.397 564.128 325.212 563.485 326.2 563.026C327.21 562.544 328.313 562.303 329.507 562.303ZM358.411 571.706C358.411 572.395 358.365 573.015 358.273 573.566H344.323C344.437 574.944 344.92 576.023 345.769 576.804C346.619 577.585 347.664 577.975 348.904 577.975C350.695 577.975 351.969 577.206 352.727 575.667H357.928C357.377 577.504 356.321 579.02 354.759 580.214C353.198 581.385 351.28 581.971 349.007 581.971C347.17 581.971 345.517 581.569 344.047 580.765C342.6 579.939 341.464 578.779 340.637 577.286C339.833 575.794 339.431 574.071 339.431 572.119C339.431 570.145 339.833 568.411 340.637 566.918C341.441 565.426 342.566 564.278 344.013 563.474C345.459 562.67 347.124 562.268 349.007 562.268C350.821 562.268 352.44 562.659 353.864 563.439C355.311 564.22 356.424 565.334 357.205 566.781C358.009 568.204 358.411 569.846 358.411 571.706ZM353.416 570.328C353.393 569.088 352.945 568.101 352.073 567.366C351.2 566.608 350.132 566.229 348.869 566.229C347.675 566.229 346.665 566.597 345.838 567.332C345.034 568.044 344.541 569.042 344.357 570.328H353.416ZM368.199 581.971C366.638 581.971 365.237 581.695 363.997 581.144C362.757 580.57 361.77 579.801 361.035 578.836C360.323 577.872 359.933 576.804 359.864 575.633H364.72C364.812 576.368 365.168 576.976 365.788 577.458C366.431 577.941 367.223 578.182 368.165 578.182C369.084 578.182 369.795 577.998 370.301 577.631C370.829 577.263 371.093 576.793 371.093 576.218C371.093 575.598 370.771 575.139 370.128 574.841C369.508 574.519 368.509 574.175 367.132 573.807C365.708 573.463 364.537 573.107 363.618 572.74C362.723 572.372 361.942 571.809 361.276 571.052C360.633 570.294 360.312 569.272 360.312 567.986C360.312 566.93 360.61 565.965 361.207 565.093C361.827 564.22 362.7 563.531 363.825 563.026C364.973 562.521 366.316 562.268 367.855 562.268C370.128 562.268 371.942 562.842 373.297 563.99C374.652 565.116 375.398 566.643 375.536 568.572H370.921C370.852 567.814 370.53 567.217 369.956 566.781C369.405 566.321 368.659 566.092 367.717 566.092C366.845 566.092 366.167 566.252 365.685 566.574C365.226 566.895 364.996 567.343 364.996 567.917C364.996 568.56 365.318 569.054 365.96 569.398C366.603 569.72 367.602 570.053 368.957 570.397C370.335 570.742 371.472 571.098 372.367 571.465C373.263 571.832 374.032 572.407 374.675 573.187C375.341 573.945 375.685 574.955 375.708 576.218C375.708 577.321 375.398 578.308 374.778 579.181C374.181 580.053 373.309 580.742 372.161 581.247C371.035 581.73 369.715 581.971 368.199 581.971Z" fill="white"/>
<path d="M279.704 523.194C280.242 523.847 280.683 524.47 281.027 525.065L267.802 535.966C268.988 537.183 270.288 537.829 271.704 537.905C273.119 537.981 274.415 537.535 275.591 536.566C277.289 535.166 277.896 533.441 277.412 531.39L282.342 527.326C283.256 529.498 283.439 531.76 282.891 534.112C282.326 536.443 280.966 538.497 278.811 540.273C277.069 541.709 275.188 542.62 273.167 543.006C271.149 543.353 269.165 543.142 267.215 542.373C265.287 541.586 263.56 540.268 262.035 538.417C260.492 536.545 259.518 534.587 259.113 532.544C258.709 530.501 258.878 528.534 259.621 526.641C260.365 524.749 261.629 523.067 263.414 521.595C265.134 520.177 266.974 519.282 268.933 518.91C270.915 518.52 272.841 518.705 274.712 519.466C276.586 520.188 278.25 521.43 279.704 523.194ZM273.892 525.791C272.902 524.633 271.706 524.047 270.304 524.032C268.885 523.996 267.576 524.471 266.379 525.458C265.247 526.391 264.576 527.529 264.367 528.872C264.161 530.175 264.474 531.507 265.305 532.87L273.892 525.791Z" fill="#919191"/>
<defs>
<clipPath id="clip0_66_1377">
<rect width="559" height="500" fill="white" transform="translate(26 66)"/>
</clipPath>
</defs>
</svg>
