<svg width="97" height="96" viewBox="0 0 97 96" fill="none" xmlns="http://www.w3.org/2000/svg">
<path d="M48.5 95.68C74.9213 95.68 96.34 74.2613 96.34 47.84C96.34 21.4187 74.9213 0 48.5 0C22.0787 0 0.660034 21.4187 0.660034 47.84C0.660034 74.2613 22.0787 95.68 48.5 95.68Z" fill="black"/>
<path d="M72.801 53.19L64.729 31.724C64.727 31.72 64.727 31.716 64.725 31.711L64.723 31.709C63.659 28.878 60.911 26.9771 57.888 26.9771C54.865 26.9771 52.117 28.878 51.051 31.711C50.742 32.533 50.586 33.3991 50.586 34.2791V43.6671H46.413V34.2791C46.413 30.2521 43.138 26.9771 39.111 26.9771C36.088 26.9771 33.34 28.878 32.274 31.711C32.272 31.715 32.272 31.719 32.27 31.724L24.198 53.1841C24.198 53.1861 24.196 53.186 24.196 53.186C23.71 54.482 23.464 55.84 23.464 57.229C23.464 63.557 28.613 68.704 34.939 68.704C41.265 68.704 46.414 63.557 46.414 57.229V56.186H50.587V57.229C50.587 63.557 55.736 68.704 62.062 68.704C68.388 68.704 73.537 63.557 73.537 57.229C73.536 55.839 73.29 54.481 72.801 53.19ZM34.94 64.531C30.913 64.531 27.638 61.256 27.638 57.229C27.638 56.344 27.794 55.479 28.103 54.659C29.167 51.83 31.915 49.927 34.94 49.927C38.967 49.927 42.242 53.202 42.242 57.229C42.242 61.256 38.966 64.531 34.94 64.531ZM62.061 64.531C58.034 64.531 54.759 61.256 54.759 57.229C54.759 53.202 58.034 49.927 62.061 49.927C65.086 49.927 67.834 51.83 68.898 54.659C69.207 55.479 69.363 56.345 69.363 57.229C69.363 61.255 66.088 64.531 62.061 64.531Z" fill="white"/>
</svg>
