<svg width="666" height="275" viewBox="0 0 666 275" fill="none" xmlns="http://www.w3.org/2000/svg">
<path d="M14.0315 61.4074C14.0315 66.4948 14.9751 71.213 16.8624 75.5619C18.8318 79.9109 21.4575 83.4803 24.7398 86.2702C28.104 88.978 32.0017 90.7832 36.4327 91.6859C40.8637 92.5064 45.5408 91.973 50.4642 90.0858C56.3722 87.9523 60.9673 84.4239 64.2495 79.5006C67.6138 74.5773 69.2959 68.5462 69.2959 61.4074C69.2959 56.8122 69.2139 51.8479 69.0498 46.5143C68.9677 41.0986 68.6395 35.847 68.0651 30.7596C67.4907 25.5901 66.6291 20.8309 65.4803 16.4819C64.4136 12.0509 62.8546 8.52254 60.8032 5.89677H70.4037V61.4074C70.4037 68.3 68.7215 74.3721 65.3573 79.6237C62.075 84.8752 57.1927 88.6908 50.7103 91.0704C45.2126 93.0398 39.6739 93.7372 34.0941 93.1629C28.5964 92.5885 23.632 90.9884 19.201 88.3626C14.77 85.6548 11.1596 82.0033 8.36967 77.4082C5.66183 72.8131 4.30792 67.4795 4.30792 61.4074V5.89677H14.0315V61.4074ZM88.3027 6.01985C91.667 6.01985 94.8261 6.63526 97.7801 7.8661C100.816 9.01487 103.606 10.697 106.15 12.9125C108.776 15.046 111.155 17.6307 113.289 20.6668C115.504 23.6208 117.514 26.862 119.32 30.3904C123.012 37.1189 125.884 44.5449 127.936 52.6684C130.069 60.7099 131.587 68.7103 132.49 76.6697V6.01985H141.721V92.9167H132.49C132.49 87.9934 132.202 82.8649 131.628 77.5313C131.054 72.1156 130.192 66.6999 129.043 61.2843C127.894 55.8686 126.459 50.576 124.735 45.4065C123.094 40.155 121.125 35.3137 118.827 30.8827C116.94 27.3543 114.93 24.1541 112.796 21.2822C110.663 18.3282 108.324 15.7845 105.781 13.651C103.237 11.5176 100.488 9.87646 97.5339 8.72768C94.662 7.49685 91.5849 6.88143 88.3027 6.88143V92.9167H79.0714V6.01985H88.3027ZM224.938 6.01985V92.9167H215.583V8.97385C211.481 10.697 207.952 13.4459 204.998 17.2204C202.126 20.995 199.706 25.385 197.736 30.3904C195.767 35.3137 194.208 40.6473 193.059 46.3912C191.91 52.1351 191.008 57.8379 190.351 63.4998C189.777 69.1616 189.408 74.5362 189.244 79.6237C189.079 84.7111 188.997 89.1421 188.997 92.9167H187.767L154.534 16.3588L151.088 8.23535V92.9167H150.349V6.01985H160.565L188.628 70.8848C189.038 66.2076 189.613 61.3663 190.351 56.3609C191.09 51.2735 192.074 46.3502 193.305 41.5909C194.536 36.7497 196.054 32.1956 197.859 27.9287C199.665 23.5797 201.839 19.8052 204.383 16.605C207.009 13.3228 210.004 10.738 213.368 8.85077C216.732 6.96349 220.589 6.01985 224.938 6.01985ZM279.437 59.5611C274.185 60.0534 269.877 61.1612 266.513 62.8844C263.149 64.5255 260.359 66.4948 258.143 68.7924C256.01 71.0079 254.328 73.4285 253.097 76.0543C251.866 78.598 250.758 80.9776 249.774 83.1931C249.199 84.7522 248.584 86.1881 247.927 87.501C247.353 88.8139 246.697 89.9217 245.958 90.8243C245.22 91.7269 244.358 92.4244 243.373 92.9167C242.389 93.4911 241.199 93.7372 239.804 93.6552C239.394 93.5731 239.065 93.4911 238.819 93.409C238.573 93.409 238.245 93.2039 237.835 92.7936C234.47 91.3166 233.116 87.7472 233.773 82.0854C234.101 79.3775 234.675 76.3415 235.496 72.9772C236.399 69.5309 237.588 65.8384 239.065 61.8997C240.706 57.4687 242.594 52.8325 244.727 47.9913C246.861 43.0679 249.117 38.1856 251.497 33.3443C253.876 28.421 256.297 23.6208 258.759 18.9436C261.22 14.2664 263.641 9.95851 266.021 6.01985H266.882L303.684 92.9167H293.345L279.437 59.5611ZM260.974 16.605C259.087 20.2155 257.159 23.949 255.189 27.8056C253.302 31.6622 251.415 35.5598 249.527 39.4985C247.722 43.3551 245.999 47.2117 244.358 51.0684C242.717 54.925 241.24 58.6175 239.927 62.1459C238.45 66.0845 237.26 69.736 236.358 73.1003C235.537 76.4645 234.963 79.4596 234.634 82.0854C234.47 84.6291 234.634 86.8035 235.127 88.6088C235.701 90.3319 236.727 91.4397 238.204 91.932C238.614 92.0961 238.901 92.2192 239.065 92.3013C239.312 92.3013 239.599 92.3833 239.927 92.5474C242.389 92.7115 244.235 91.891 245.466 90.0858C246.697 88.1985 247.804 85.8189 248.789 82.9469C249.774 80.6494 250.922 78.1877 252.235 75.5619C253.548 72.9362 255.271 70.4745 257.405 68.1769C259.62 65.7973 262.451 63.7459 265.898 62.0228C269.344 60.2996 273.734 59.1919 279.067 58.6995L260.974 16.605ZM312.404 26.944C312.404 22.3489 313.512 18.5333 315.727 15.4973C318.025 12.4612 320.938 10.1226 324.466 8.48151C327.994 6.75835 331.892 5.73265 336.159 5.40443C340.508 4.99415 344.734 5.19929 348.836 6.01985C352.939 6.8404 356.714 8.19432 360.16 10.0816C363.606 11.9689 366.191 14.3485 367.914 17.2204V30.1442C364.796 23.8259 361.145 18.9026 356.96 15.3742C352.857 11.8458 348.672 9.42515 344.405 8.11227C340.139 6.79938 335.995 6.47115 331.974 7.1276C327.953 7.70199 324.548 8.97385 321.758 10.9432C319.378 12.5022 317.737 14.5126 316.835 16.9743C315.932 19.3539 316.178 22.0207 317.573 24.9747C318.968 27.9287 321.676 31.0878 325.697 34.4521C329.8 37.8164 335.625 41.2627 343.175 44.7911C346.539 46.2681 349.78 47.8272 352.898 49.4683C356.098 51.1094 358.888 53.0377 361.268 55.2532C363.73 57.3866 365.699 59.8483 367.176 62.6382C368.653 65.346 369.391 68.5052 369.391 72.1156C369.391 75.4799 368.735 78.4339 367.422 80.9776C366.191 83.5213 364.468 85.6958 362.253 87.501C358.724 90.2089 354.457 91.932 349.452 92.6705C344.529 93.409 339.4 93.2449 334.066 92.1782C328.815 91.1115 323.686 89.1832 318.681 86.3933C313.758 83.5213 309.573 79.8699 306.127 75.4389V58.3303C309.163 65.9614 312.978 72.3618 317.573 77.5313C322.25 82.6187 327.174 86.3933 332.343 88.8549C337.513 91.2345 342.641 92.2602 347.729 91.932C352.898 91.6038 357.411 89.7986 361.268 86.5164C363.319 84.7932 364.632 82.7828 365.207 80.4853C365.781 78.1057 365.289 75.5209 363.73 72.731C362.17 69.8591 359.34 66.823 355.237 63.6229C351.216 60.4227 345.636 57.1815 338.497 53.8993C335.215 52.4223 332.015 50.8632 328.897 49.2221C325.779 47.4989 322.989 45.5706 320.527 43.4372C318.066 41.3037 316.096 38.9241 314.619 36.2984C313.142 33.5905 312.404 30.4724 312.404 26.944ZM407.176 45.6527C405.289 45.6527 403.607 46.0219 402.13 46.7604C400.735 47.4169 399.504 48.1964 398.437 49.099C397.452 50.0016 396.632 50.9863 395.975 52.053C395.319 53.0377 394.868 53.8172 394.622 54.3916C392.324 59.6432 390.519 65.346 389.206 71.5002C387.975 77.6544 387.36 84.7932 387.36 92.9167H378.005V6.01985H387.36V77.162C388.098 71.5002 389.206 66.3307 390.683 61.6535C392.16 56.9764 393.965 52.5864 396.099 48.4836C398.314 44.3808 400.776 40.4422 403.484 36.6676C406.273 32.893 409.309 29.0775 412.592 25.2209C414.889 22.431 416.735 19.8052 418.13 17.3435C418.705 16.2768 419.197 15.2101 419.607 14.1433C420.1 13.0766 420.428 12.0509 420.592 11.0663C420.756 9.99954 420.715 9.0559 420.469 8.23535C420.223 7.33273 419.689 6.59423 418.869 6.01985H439.301C437.167 6.43013 434.993 7.29171 432.777 8.60459C430.644 9.83543 428.675 11.1073 426.869 12.4202C425.146 13.7331 423.71 14.9229 422.561 15.9896C421.413 16.9743 420.797 17.4666 420.715 17.4666C415.874 22.9643 411.484 28.1749 407.545 33.0982C403.607 38.0215 400.16 43.2731 397.206 48.8529C398.273 47.7861 399.627 46.8425 401.268 46.0219C402.909 45.1193 404.878 44.668 407.176 44.668C411.443 44.668 415.012 45.4886 417.884 47.1297C420.756 48.6887 423.177 50.7812 425.146 53.4069C427.116 55.9507 428.798 58.8636 430.193 62.1459C431.67 65.346 433.106 68.5462 434.501 71.7464C435.731 74.4542 436.921 77.0389 438.07 79.5006C439.301 81.9623 440.573 84.1367 441.886 86.024C443.28 87.8292 444.799 89.2652 446.44 90.3319C448.163 91.3987 450.091 91.932 452.225 91.932V92.9167C446.645 92.9167 442.091 92.2602 438.562 90.9474C435.034 89.5524 432.244 87.7472 430.193 85.5317C428.141 83.3162 426.623 80.8135 425.639 78.0236C424.654 75.1517 423.874 72.2387 423.3 69.2847C422.808 66.3307 422.315 63.4587 421.823 60.6689C421.413 57.7969 420.674 55.2532 419.607 53.0377C418.623 50.8222 417.187 49.058 415.3 47.7451C413.412 46.3502 410.704 45.6527 407.176 45.6527ZM460.822 6.01985H470.053V92.9167H460.822V6.01985ZM487.843 6.01985C491.207 6.01985 494.366 6.63526 497.32 7.8661C500.356 9.01487 503.146 10.697 505.69 12.9125C508.316 15.046 510.695 17.6307 512.829 20.6668C515.044 23.6208 517.055 26.862 518.86 30.3904C522.552 37.1189 525.424 44.5449 527.476 52.6684C529.609 60.7099 531.127 68.7103 532.03 76.6697V6.01985H541.261V92.9167H532.03C532.03 87.9934 531.742 82.8649 531.168 77.5313C530.594 72.1156 529.732 66.6999 528.583 61.2843C527.435 55.8686 525.999 50.576 524.275 45.4065C522.634 40.155 520.665 35.3137 518.367 30.8827C516.48 27.3543 514.47 24.1541 512.336 21.2822C510.203 18.3282 507.864 15.7845 505.321 13.651C502.777 11.5176 500.028 9.87646 497.074 8.72768C494.202 7.49685 491.125 6.88143 487.843 6.88143V92.9167H478.611V6.01985H487.843ZM617.708 53.0377C613.934 53.0377 610.241 53.1197 606.631 53.2838C603.102 53.3659 599.738 53.6941 596.538 54.2685C593.338 54.8429 590.343 55.7045 587.553 56.8533C584.763 58.002 582.26 59.5611 580.045 61.5304V52.053H627.062V77.7774C624.437 81.2238 621.237 84.1778 617.462 86.6394C613.687 89.019 609.462 90.7832 604.784 91.932C599.04 93.6552 593.338 94.1065 587.676 93.2859C582.014 92.4654 576.762 90.6602 571.921 87.8703C567.08 85.0804 562.854 81.3879 559.244 76.7928C555.633 72.1977 553.048 66.9871 551.489 61.1612C549.93 55.3352 549.561 49.5503 550.382 43.8064C551.202 38.0625 553.007 32.77 555.797 27.9287C558.669 23.0054 562.362 18.7795 566.875 15.2511C571.47 11.6407 576.721 9.05591 582.629 7.49685C585.994 6.59424 589.153 6.06088 592.107 5.89677C595.061 5.6506 597.769 5.69163 600.23 6.01985C602.774 6.26602 605.072 6.75835 607.123 7.49685C609.256 8.15329 611.144 8.89179 612.785 9.71234C616.723 11.7637 620.006 14.3895 622.631 17.5897V30.3904C622.549 30.1442 622.098 29.2826 621.278 27.8056C620.457 26.2465 619.308 24.4413 617.831 22.3899C616.354 20.3385 614.508 18.2461 612.292 16.1127C610.077 13.8972 607.492 12.0509 604.538 10.5739C601.666 9.01488 598.384 7.94815 594.692 7.37376C591.081 6.79938 587.101 7.1276 582.752 8.35843C577.501 9.83543 573.193 12.4202 569.829 16.1127C566.464 19.7231 563.921 23.908 562.198 28.6672C560.556 33.4264 559.654 38.4728 559.49 43.8064C559.326 49.058 559.859 54.0224 561.09 58.6995C562.321 63.3767 564.29 67.9718 566.998 72.4849C569.788 76.9979 573.111 80.8955 576.968 84.1778C580.824 87.46 585.091 89.8396 589.768 91.3166C594.445 92.7115 599.369 92.7115 604.538 91.3166C607.328 90.6602 609.79 89.6345 611.923 88.2395C614.057 86.8446 615.985 85.3265 617.708 83.6854V53.0377ZM39.1405 167.914C42.3407 168.653 45.0485 169.925 47.264 171.73C49.4795 173.535 51.4078 175.668 53.0489 178.13C54.7721 180.592 56.2491 183.3 57.4799 186.254C58.7108 189.126 59.9416 191.997 61.1724 194.869C62.3212 197.577 63.47 200.162 64.6188 202.624C65.8496 205.003 67.1625 207.137 68.5574 209.024C69.9524 210.829 71.4704 212.265 73.1115 213.332C74.7526 214.399 76.5989 214.932 78.6503 214.932V215.917C73.0705 215.917 68.5164 215.26 64.988 213.947C61.4596 212.552 58.6697 210.747 56.6183 208.532C54.5669 206.316 53.0489 203.772 52.0643 200.901C51.1616 198.029 50.4231 195.116 49.8488 192.162C49.3564 189.208 48.8641 186.295 48.3718 183.423C47.9615 180.551 47.264 178.007 46.2793 175.792C45.2947 173.576 43.8177 171.812 41.8483 170.499C39.9611 169.104 37.2943 168.407 33.8479 168.407C27.6117 168.407 22.6063 165.453 18.8318 159.545C16.6983 156.098 15.0982 151.872 14.0315 146.867V215.917H4.30792V128.897H25.9706C30.4836 128.897 34.7505 129.266 38.7713 130.005C42.792 130.661 46.2793 131.769 49.2333 133.328C52.2694 134.887 54.649 136.897 56.3722 139.359C58.0953 141.821 58.9569 144.816 58.9569 148.344C58.9569 151.38 58.4236 154.047 57.3568 156.344C56.2901 158.642 54.8541 160.611 53.0489 162.252C51.2437 163.811 49.1513 165.083 46.7717 166.068C44.3921 166.971 41.8483 167.586 39.1405 167.914ZM49.2333 148.344C49.2333 144.816 48.5769 141.903 47.264 139.605C45.9511 137.225 44.2279 135.338 42.0945 133.943C39.9611 132.466 37.4584 131.44 34.5864 130.866C31.7965 130.21 28.9246 129.881 25.9706 129.881H14.0315V137.513C14.0315 142.026 14.5238 146.046 15.5085 149.575C16.5752 153.103 17.9702 156.221 19.6933 158.929C21.4165 161.473 23.4679 163.565 25.8475 165.206C28.3092 166.765 30.976 167.545 33.8479 167.545H34.7095C36.6788 167.463 38.5251 167.012 40.2483 166.191C42.0535 165.37 43.6125 164.181 44.9254 162.622C46.2383 161.063 47.264 159.093 48.0025 156.714C48.8231 154.334 49.2333 151.544 49.2333 148.344ZM96.7223 214.932H117.523C122.939 214.932 127.329 213.619 130.693 210.993C134.058 208.368 136.848 203.937 139.063 197.7L136.232 215.917H87.2449V129.02H136.971V138.867C134.755 136.815 132.622 135.174 130.57 133.943C128.601 132.712 126.467 131.81 124.17 131.235C121.954 130.661 119.452 130.292 116.662 130.128C113.872 129.963 110.59 129.881 106.815 129.881H96.7223V149.821C96.7223 154.006 97.2557 157.452 98.3224 160.16C99.3892 162.786 100.989 164.837 103.123 166.314C105.256 167.791 107.923 168.817 111.123 169.391C114.323 169.884 118.016 170.13 122.201 170.13V179.853C120.395 177.802 118.221 176.202 115.677 175.053C113.133 173.904 110.59 172.673 108.046 171.361C105.584 169.966 103.287 168.283 101.153 166.314C99.102 164.345 97.625 161.555 96.7223 157.944V214.932ZM150.857 149.944C150.857 145.349 151.965 141.533 154.18 138.497C156.478 135.461 159.391 133.123 162.919 131.482C166.447 129.758 170.345 128.733 174.612 128.404C178.961 127.994 183.187 128.199 187.29 129.02C191.392 129.84 195.167 131.194 198.613 133.082C202.06 134.969 204.644 137.348 206.367 140.22V153.144C203.249 146.826 199.598 141.903 195.413 138.374C191.31 134.846 187.125 132.425 182.859 131.112C178.592 129.799 174.448 129.471 170.427 130.128C166.406 130.702 163.001 131.974 160.211 133.943C157.832 135.502 156.191 137.513 155.288 139.974C154.385 142.354 154.631 145.021 156.026 147.975C157.421 150.929 160.129 154.088 164.15 157.452C168.253 160.816 174.079 164.263 181.628 167.791C184.992 169.268 188.233 170.827 191.351 172.468C194.551 174.109 197.341 176.038 199.721 178.253C202.183 180.387 204.152 182.848 205.629 185.638C207.106 188.346 207.844 191.505 207.844 195.116C207.844 198.48 207.188 201.434 205.875 203.978C204.644 206.521 202.921 208.696 200.706 210.501C197.177 213.209 192.91 214.932 187.905 215.671C182.982 216.409 177.853 216.245 172.52 215.178C167.268 214.111 162.14 212.183 157.134 209.393C152.211 206.521 148.026 202.87 144.58 198.439V181.33C147.616 188.961 151.431 195.362 156.026 200.531C160.704 205.619 165.627 209.393 170.796 211.855C175.966 214.235 181.094 215.26 186.182 214.932C191.351 214.604 195.864 212.799 199.721 209.516C201.772 207.793 203.085 205.783 203.66 203.485C204.234 201.106 203.742 198.521 202.183 195.731C200.624 192.859 197.793 189.823 193.69 186.623C189.669 183.423 184.089 180.181 176.951 176.899C173.668 175.422 170.468 173.863 167.35 172.222C164.232 170.499 161.442 168.571 158.98 166.437C156.519 164.304 154.549 161.924 153.072 159.298C151.595 156.591 150.857 153.472 150.857 149.944ZM216.458 129.02H225.69V215.917H216.458V129.02ZM283.358 215.917H234.248V129.02H244.094V214.932H264.896C270.229 214.932 274.537 213.619 277.819 210.993C281.184 208.368 284.014 203.937 286.312 197.7L283.358 215.917ZM294.948 129.02H304.179V215.917H294.948V129.02ZM322.215 214.932H343.016C348.432 214.932 352.822 213.619 356.186 210.993C359.55 208.368 362.34 203.937 364.556 197.7L361.725 215.917H312.737V129.02H362.463V138.867C360.248 136.815 358.114 135.174 356.063 133.943C354.093 132.712 351.96 131.81 349.662 131.235C347.447 130.661 344.944 130.292 342.154 130.128C339.364 129.963 336.082 129.881 332.308 129.881H322.215V149.821C322.215 154.006 322.748 157.452 323.815 160.16C324.882 162.786 326.482 164.837 328.615 166.314C330.749 167.791 333.415 168.817 336.616 169.391C339.816 169.884 343.508 170.13 347.693 170.13V179.853C345.888 177.802 343.713 176.202 341.17 175.053C338.626 173.904 336.082 172.673 333.539 171.361C331.077 169.966 328.779 168.283 326.646 166.314C324.594 164.345 323.117 161.555 322.215 157.944V214.932ZM382.429 129.02C385.793 129.02 388.952 129.635 391.906 130.866C394.942 132.015 397.732 133.697 400.276 135.913C402.901 138.046 405.281 140.631 407.414 143.667C409.63 146.621 411.64 149.862 413.446 153.39C417.138 160.119 420.01 167.545 422.061 175.668C424.195 183.71 425.713 191.71 426.615 199.67V129.02H435.847V215.917H426.615C426.615 210.993 426.328 205.865 425.754 200.531C425.18 195.116 424.318 189.7 423.169 184.284C422.02 178.869 420.584 173.576 418.861 168.407C417.22 163.155 415.251 158.314 412.953 153.883C411.066 150.354 409.056 147.154 406.922 144.282C404.789 141.328 402.45 138.784 399.906 136.651C397.363 134.518 394.614 132.876 391.66 131.728C388.788 130.497 385.711 129.881 382.429 129.881V215.917H373.197V129.02H382.429ZM477.092 131.358C471.841 132.835 467.533 135.42 464.168 139.113C460.804 142.723 458.26 146.908 456.537 151.667C454.896 156.426 453.994 161.473 453.829 166.806C453.747 172.058 454.281 177.022 455.43 181.7C456.742 186.377 458.753 190.972 461.461 195.485C464.25 199.998 467.574 203.896 471.43 207.178C475.287 210.46 479.554 212.84 484.231 214.317C488.99 215.712 493.996 215.712 499.247 214.317C502.694 213.414 505.689 212.019 508.232 210.132C510.858 208.162 513.074 205.906 514.879 203.362C516.766 200.736 518.243 197.905 519.31 194.869C520.459 191.751 521.238 188.51 521.648 185.146V200.777C518.941 204.224 515.658 207.178 511.802 209.639C508.027 212.019 503.924 213.783 499.493 214.932C493.585 216.655 487.8 217.106 482.139 216.286C476.477 215.465 471.225 213.66 466.384 210.87C461.625 208.08 457.44 204.388 453.829 199.793C450.219 195.198 447.593 189.987 445.952 184.161C444.475 178.335 444.147 172.55 444.967 166.806C445.788 161.063 447.593 155.77 450.383 150.929C453.173 146.005 456.824 141.779 461.338 138.251C465.851 134.641 471.02 132.056 476.846 130.497C480.292 129.594 483.493 129.061 486.447 128.897C489.401 128.651 492.149 128.692 494.693 129.02C497.237 129.266 499.534 129.758 501.586 130.497C503.719 131.153 505.606 131.892 507.248 132.712C511.186 134.764 514.468 137.39 517.094 140.59V153.39C514.386 147.975 511.063 143.38 507.125 139.605C505.483 138.046 503.596 136.569 501.463 135.174C499.411 133.697 497.114 132.548 494.57 131.728C492.108 130.825 489.401 130.333 486.447 130.251C483.575 130.087 480.456 130.456 477.092 131.358ZM539.774 214.932H560.575C565.991 214.932 570.381 213.619 573.745 210.993C577.11 208.368 579.899 203.937 582.115 197.7L579.284 215.917H530.297V129.02H580.023V138.867C577.807 136.815 575.674 135.174 573.622 133.943C571.653 132.712 569.519 131.81 567.222 131.235C565.006 130.661 562.504 130.292 559.714 130.128C556.924 129.963 553.642 129.881 549.867 129.881H539.774V149.821C539.774 154.006 540.308 157.452 541.374 160.16C542.441 162.786 544.041 164.837 546.175 166.314C548.308 167.791 550.975 168.817 554.175 169.391C557.375 169.884 561.068 170.13 565.253 170.13V179.853C563.447 177.802 561.273 176.202 558.729 175.053C556.185 173.904 553.642 172.673 551.098 171.361C548.636 169.966 546.339 168.283 544.205 166.314C542.154 164.345 540.677 161.555 539.774 157.944V214.932Z" fill="white"/>
<path d="M10.0713 254.928L5.90897 262.862V267.917H4.60826V262.862L0.408797 254.928H1.87675L5.25861 261.673L8.6219 254.928H10.0713ZM31.1885 268.047C29.9869 268.047 28.8967 267.768 27.9181 267.211C26.9395 266.641 26.1652 265.854 25.5954 264.851C25.0379 263.835 24.7592 262.689 24.7592 261.413C24.7592 260.137 25.0379 258.997 25.5954 257.994C26.1652 256.978 26.9395 256.192 27.9181 255.634C28.8967 255.064 29.9869 254.779 31.1885 254.779C32.4025 254.779 33.4988 255.064 34.4774 255.634C35.4561 256.192 36.2241 256.978 36.7816 257.994C37.339 258.997 37.6177 260.137 37.6177 261.413C37.6177 262.689 37.339 263.835 36.7816 264.851C36.2241 265.854 35.4561 266.641 34.4774 267.211C33.4988 267.768 32.4025 268.047 31.1885 268.047ZM31.1885 266.913C32.1547 266.913 33.0219 266.69 33.7899 266.244C34.5579 265.798 35.1649 265.16 35.6109 264.33C36.0569 263.488 36.2798 262.516 36.2798 261.413C36.2798 260.311 36.0569 259.344 35.6109 258.514C35.1649 257.684 34.5579 257.046 33.7899 256.6C33.0219 256.154 32.1547 255.932 31.1885 255.932C30.2222 255.932 29.3551 256.154 28.587 256.6C27.819 257.046 27.212 257.684 26.766 258.514C26.3201 259.344 26.0971 260.311 26.0971 261.413C26.0971 262.516 26.3201 263.488 26.766 264.33C27.212 265.16 27.819 265.798 28.587 266.244C29.3551 266.69 30.2222 266.913 31.1885 266.913ZM54.6216 254.928V263.104C54.6216 264.392 54.9251 265.346 55.5321 265.966C56.1515 266.585 56.9938 266.895 58.0592 266.895C59.1245 266.895 59.9545 266.591 60.5491 265.984C61.1561 265.365 61.4596 264.405 61.4596 263.104V254.928H62.7603V263.085C62.7603 264.733 62.3206 265.972 61.441 266.802C60.5739 267.632 59.4404 268.047 58.0406 268.047C56.6408 268.047 55.5011 267.632 54.6216 266.802C53.7544 265.972 53.3208 264.733 53.3208 263.085V254.928H54.6216ZM85.9527 267.917L82.7381 262.491H80.3411V267.917H79.0404V254.928H82.9425C84.3919 254.928 85.4882 255.275 86.2315 255.969C86.9871 256.662 87.3649 257.573 87.3649 258.7C87.3649 259.642 87.0924 260.447 86.5473 261.116C86.0147 261.772 85.2219 262.2 84.1689 262.398L87.5136 267.917H85.9527ZM80.3411 261.432H82.9611C83.9769 261.432 84.7387 261.184 85.2466 260.688C85.7669 260.193 86.0271 259.53 86.0271 258.7C86.0271 257.845 85.7793 257.189 85.2838 256.731C84.7883 256.26 84.0079 256.024 82.9425 256.024H80.3411V261.432ZM125.742 268.047C124.887 268.047 124.132 267.898 123.475 267.601C122.831 267.303 122.323 266.889 121.952 266.356C121.58 265.823 121.382 265.229 121.357 264.572H122.732C122.794 265.204 123.073 265.761 123.568 266.244C124.064 266.715 124.788 266.95 125.742 266.95C126.622 266.95 127.315 266.727 127.823 266.281C128.344 265.823 128.604 265.247 128.604 264.553C128.604 263.996 128.461 263.55 128.176 263.216C127.891 262.869 127.538 262.615 127.117 262.454C126.696 262.28 126.114 262.094 125.371 261.896C124.503 261.661 123.816 261.432 123.308 261.209C122.8 260.986 122.367 260.639 122.007 260.168C121.648 259.697 121.468 259.059 121.468 258.254C121.468 257.585 121.642 256.991 121.989 256.47C122.336 255.938 122.825 255.523 123.457 255.225C124.088 254.928 124.813 254.779 125.631 254.779C126.832 254.779 127.799 255.077 128.529 255.671C129.273 256.254 129.7 257.009 129.812 257.938H128.399C128.313 257.406 128.022 256.935 127.526 256.526C127.031 256.105 126.362 255.894 125.519 255.894C124.739 255.894 124.088 256.105 123.568 256.526C123.048 256.935 122.788 257.499 122.788 258.217C122.788 258.762 122.93 259.202 123.215 259.536C123.5 259.871 123.853 260.125 124.274 260.298C124.708 260.472 125.29 260.657 126.021 260.856C126.863 261.091 127.545 261.326 128.065 261.562C128.585 261.785 129.025 262.132 129.384 262.602C129.743 263.073 129.923 263.705 129.923 264.498C129.923 265.105 129.762 265.681 129.44 266.226C129.118 266.771 128.641 267.211 128.009 267.545C127.377 267.88 126.622 268.047 125.742 268.047ZM153.415 254.928V256.006H149.81V267.917H148.51V256.006H144.886V254.928H153.415ZM174.683 268.047C173.481 268.047 172.391 267.768 171.412 267.211C170.434 266.641 169.659 265.854 169.089 264.851C168.532 263.835 168.253 262.689 168.253 261.413C168.253 260.137 168.532 258.997 169.089 257.994C169.659 256.978 170.434 256.192 171.412 255.634C172.391 255.064 173.481 254.779 174.683 254.779C175.897 254.779 176.993 255.064 177.972 255.634C178.95 256.192 179.718 256.978 180.276 257.994C180.833 258.997 181.112 260.137 181.112 261.413C181.112 262.689 180.833 263.835 180.276 264.851C179.718 265.854 178.95 266.641 177.972 267.211C176.993 267.768 175.897 268.047 174.683 268.047ZM174.683 266.913C175.649 266.913 176.516 266.69 177.284 266.244C178.052 265.798 178.659 265.16 179.105 264.33C179.551 263.488 179.774 262.516 179.774 261.413C179.774 260.311 179.551 259.344 179.105 258.514C178.659 257.684 178.052 257.046 177.284 256.6C176.516 256.154 175.649 255.932 174.683 255.932C173.716 255.932 172.849 256.154 172.081 256.6C171.313 257.046 170.706 257.684 170.26 258.514C169.814 259.344 169.591 260.311 169.591 261.413C169.591 262.516 169.814 263.488 170.26 264.33C170.706 265.16 171.313 265.798 172.081 266.244C172.849 266.69 173.716 266.913 174.683 266.913ZM203.783 267.917L200.568 262.491H198.171V267.917H196.871V254.928H200.773C202.222 254.928 203.319 255.275 204.062 255.969C204.817 256.662 205.195 257.573 205.195 258.7C205.195 259.642 204.923 260.447 204.378 261.116C203.845 261.772 203.052 262.2 201.999 262.398L205.344 267.917H203.783ZM198.171 261.432H200.791C201.807 261.432 202.569 261.184 203.077 260.688C203.597 260.193 203.857 259.53 203.857 258.7C203.857 257.845 203.61 257.189 203.114 256.731C202.619 256.26 201.838 256.024 200.773 256.024H198.171V261.432ZM229.74 254.928L225.578 262.862V267.917H224.277V262.862L220.078 254.928H221.546L224.927 261.673L228.291 254.928H229.74ZM246.212 265.761L244.279 270.63H243.387L244.762 265.761H246.212ZM288.676 254.928L284.514 262.862V267.917H283.213V262.862L279.013 254.928H280.481L283.863 261.673L287.227 254.928H288.676ZM309.793 268.047C308.591 268.047 307.501 267.768 306.523 267.211C305.544 266.641 304.77 265.854 304.2 264.851C303.643 263.835 303.364 262.689 303.364 261.413C303.364 260.137 303.643 258.997 304.2 257.994C304.77 256.978 305.544 256.192 306.523 255.634C307.501 255.064 308.591 254.779 309.793 254.779C311.007 254.779 312.103 255.064 313.082 255.634C314.061 256.192 314.829 256.978 315.386 257.994C315.944 258.997 316.222 260.137 316.222 261.413C316.222 262.689 315.944 263.835 315.386 264.851C314.829 265.854 314.061 266.641 313.082 267.211C312.103 267.768 311.007 268.047 309.793 268.047ZM309.793 266.913C310.759 266.913 311.626 266.69 312.395 266.244C313.163 265.798 313.77 265.16 314.216 264.33C314.662 263.488 314.884 262.516 314.884 261.413C314.884 260.311 314.662 259.344 314.216 258.514C313.77 257.684 313.163 257.046 312.395 256.6C311.626 256.154 310.759 255.932 309.793 255.932C308.827 255.932 307.96 256.154 307.192 256.6C306.424 257.046 305.817 257.684 305.371 258.514C304.925 259.344 304.702 260.311 304.702 261.413C304.702 262.516 304.925 263.488 305.371 264.33C305.817 265.16 306.424 265.798 307.192 266.244C307.96 266.69 308.827 266.913 309.793 266.913ZM333.226 254.928V263.104C333.226 264.392 333.53 265.346 334.137 265.966C334.756 266.585 335.598 266.895 336.664 266.895C337.729 266.895 338.559 266.591 339.154 265.984C339.761 265.365 340.064 264.405 340.064 263.104V254.928H341.365V263.085C341.365 264.733 340.925 265.972 340.046 266.802C339.179 267.632 338.045 268.047 336.645 268.047C335.245 268.047 334.106 267.632 333.226 266.802C332.359 265.972 331.925 264.733 331.925 263.085V254.928H333.226ZM364.557 267.917L361.343 262.491H358.946V267.917H357.645V254.928H361.547C362.997 254.928 364.093 255.275 364.836 255.969C365.592 256.662 365.97 257.573 365.97 258.7C365.97 259.642 365.697 260.447 365.152 261.116C364.619 261.772 363.826 262.2 362.774 262.398L366.118 267.917H364.557ZM358.946 261.432H361.566C362.582 261.432 363.343 261.184 363.851 260.688C364.372 260.193 364.632 259.53 364.632 258.7C364.632 257.845 364.384 257.189 363.888 256.731C363.393 256.26 362.612 256.024 361.547 256.024H358.946V261.432ZM404.347 268.047C403.492 268.047 402.736 267.898 402.08 267.601C401.436 267.303 400.928 266.889 400.556 266.356C400.185 265.823 399.986 265.229 399.962 264.572H401.337C401.399 265.204 401.677 265.761 402.173 266.244C402.668 266.715 403.393 266.95 404.347 266.95C405.226 266.95 405.92 266.727 406.428 266.281C406.948 265.823 407.208 265.247 407.208 264.553C407.208 263.996 407.066 263.55 406.781 263.216C406.496 262.869 406.143 262.615 405.722 262.454C405.301 262.28 404.718 262.094 403.975 261.896C403.108 261.661 402.421 261.432 401.913 261.209C401.405 260.986 400.971 260.639 400.612 260.168C400.253 259.697 400.073 259.059 400.073 258.254C400.073 257.585 400.246 256.991 400.593 256.47C400.94 255.938 401.43 255.523 402.061 255.225C402.693 254.928 403.418 254.779 404.235 254.779C405.437 254.779 406.403 255.077 407.134 255.671C407.877 256.254 408.305 257.009 408.416 257.938H407.004C406.917 257.406 406.626 256.935 406.131 256.526C405.635 256.105 404.966 255.894 404.124 255.894C403.343 255.894 402.693 256.105 402.173 256.526C401.652 256.935 401.392 257.499 401.392 258.217C401.392 258.762 401.535 259.202 401.82 259.536C402.105 259.871 402.458 260.125 402.879 260.298C403.312 260.472 403.895 260.657 404.626 260.856C405.468 261.091 406.149 261.326 406.67 261.562C407.19 261.785 407.63 262.132 407.989 262.602C408.348 263.073 408.528 263.705 408.528 264.498C408.528 265.105 408.367 265.681 408.045 266.226C407.723 266.771 407.246 267.211 406.614 267.545C405.982 267.88 405.226 268.047 404.347 268.047ZM432.02 254.928V256.006H428.415V267.917H427.114V256.006H423.491V254.928H432.02ZM454.365 267.917L451.15 262.491H448.753V267.917H447.453V254.928H451.355C452.804 254.928 453.9 255.275 454.644 255.969C455.399 256.662 455.777 257.573 455.777 258.7C455.777 259.642 455.505 260.447 454.96 261.116C454.427 261.772 453.634 262.2 452.581 262.398L455.926 267.917H454.365ZM448.753 261.432H451.373C452.389 261.432 453.151 261.184 453.659 260.688C454.179 260.193 454.439 259.53 454.439 258.7C454.439 257.845 454.191 257.189 453.696 256.731C453.2 256.26 452.42 256.024 451.355 256.024H448.753V261.432ZM473.038 255.987V260.837H477.962V261.915H473.038V266.839H478.519V267.917H471.737V254.91H478.519V255.987H473.038ZM504.254 267.917H502.953L495.762 256.991V267.917H494.461V254.928H495.762L502.953 265.836V254.928H504.254V267.917ZM530.799 258.719C530.427 257.864 529.857 257.195 529.089 256.712C528.333 256.216 527.442 255.969 526.413 255.969C525.447 255.969 524.58 256.192 523.812 256.638C523.044 257.084 522.437 257.722 521.991 258.552C521.545 259.369 521.322 260.323 521.322 261.413C521.322 262.503 521.545 263.463 521.991 264.293C522.437 265.123 523.044 265.761 523.812 266.207C524.58 266.653 525.447 266.876 526.413 266.876C527.318 266.876 528.129 266.684 528.848 266.3C529.578 265.904 530.161 265.346 530.594 264.628C531.04 263.897 531.294 263.048 531.356 262.082H525.893V261.023H532.731V261.971C532.669 263.11 532.359 264.145 531.802 265.074C531.245 265.99 530.495 266.715 529.554 267.248C528.625 267.78 527.578 268.047 526.413 268.047C525.212 268.047 524.122 267.768 523.143 267.211C522.164 266.641 521.39 265.854 520.82 264.851C520.263 263.835 519.984 262.689 519.984 261.413C519.984 260.137 520.263 258.997 520.82 257.994C521.39 256.978 522.164 256.192 523.143 255.634C524.122 255.064 525.212 254.779 526.413 254.779C527.801 254.779 529.015 255.126 530.055 255.82C531.096 256.514 531.852 257.48 532.322 258.719H530.799ZM556.092 254.928V256.006H552.488V267.917H551.187V256.006H547.563V254.928H556.092ZM581.169 254.928V267.917H579.868V261.84H572.826V267.917H571.525V254.928H572.826V260.763H579.868V254.928H581.169Z" fill="white"/>
</svg>
