<svg width="97" height="96" viewBox="0 0 97 96" fill="none" xmlns="http://www.w3.org/2000/svg">
<path d="M48.5 95.68C74.9213 95.68 96.34 74.2613 96.34 47.84C96.34 21.4187 74.9213 0 48.5 0C22.0787 0 0.660034 21.4187 0.660034 47.84C0.660034 74.2613 22.0787 95.68 48.5 95.68Z" fill="black"/>
<path d="M72.374 70.1619L61.585 50.5459C61.408 50.2239 61.069 50.0559 60.7 50.0379C60.333 50.0479 60.004 50.2619 59.843 50.5909L56.106 58.3209L45.031 38.0159V34.3439H55.82C56.216 34.3439 56.575 34.1049 56.724 33.7379C56.877 33.3709 56.793 32.9489 56.512 32.6689L53.283 29.4399L56.514 26.2109C56.795 25.9299 56.879 25.5089 56.726 25.1419C56.575 24.7749 56.216 24.5359 55.82 24.5359H44.05C43.509 24.5359 43.069 24.9749 43.069 25.5169V38.0159L25.534 70.1629C25.369 70.4669 25.375 70.8359 25.552 71.1339C25.729 71.4319 26.05 71.6149 26.395 71.6149H61.704H71.512C71.859 71.6149 72.179 71.4329 72.357 71.1319C72.537 70.8349 72.541 70.4659 72.374 70.1619ZM44.05 40.3169L49.068 49.5179L47.098 51.4879L44.834 48.4689C44.463 47.9749 43.634 47.9749 43.265 48.4689L41.001 51.4879L39.031 49.5179L44.05 40.3169Z" fill="white"/>
</svg>
