<svg width="122" height="116" viewBox="0 0 122 116" fill="none" xmlns="http://www.w3.org/2000/svg">
<path d="M40.4331 60.615L42.6681 66.625L44.9031 60.615L50.9141 58.38L45.6111 56.408L98.2681 2.17297L44.3131 54.558L42.6681 50.134L40.4331 56.145L34.4231 58.38L40.4331 60.615Z" fill="black"/>
<path d="M60.842 48.898L58.914 54.082L53.731 56.009L58.914 57.937L60.842 63.121L62.77 57.937L67.953 56.009L63.449 54.334L86.218 30.026L62.193 52.53L60.842 48.898Z" fill="black"/>
<path d="M34.7669 10.404L35.7309 7.81201L38.3229 6.84799L35.7309 5.884L34.7669 3.29199L33.8029 5.884L31.2109 6.84799L33.8029 7.81201L34.7669 10.404Z" fill="black"/>
<path d="M27.6559 44.603L29.1079 40.697L33.0149 39.244L29.1079 37.792L27.6559 33.885L26.2029 37.792L22.2959 39.244L26.2029 40.697L27.6559 44.603Z" fill="black"/>
<path d="M97.9791 51.268L96.5271 55.175L92.6201 56.628L96.5271 58.08L97.9791 61.987L99.4321 58.08L103.339 56.628L99.4321 55.175L97.9791 51.268Z" fill="black"/>
<path d="M101.93 28.182L102.787 25.878L105.091 25.021L102.787 24.165L101.93 21.861L101.073 24.165L98.769 25.021L101.073 25.878L101.93 28.182Z" fill="black"/>
<path d="M71.9039 85.863L70.8329 88.743L67.9529 89.814L70.8329 90.885L71.9039 93.765L72.9749 90.885L75.8549 89.814L72.9749 88.743L71.9039 85.863Z" fill="black"/>
<path d="M59.262 106.407L58.191 109.287L55.311 110.358L58.191 111.429L59.262 114.309L60.333 111.429L63.213 110.358L60.333 109.287L59.262 106.407Z" fill="black"/>
<path d="M3.951 51.097L5.022 48.217L7.902 47.146L5.022 46.075L3.951 43.195L2.88 46.075L0 47.146L2.88 48.217L3.951 51.097Z" fill="black"/>
<path d="M111.412 91.79L110.662 93.806L108.646 94.555L110.662 95.305L111.412 97.321L112.162 95.305L114.177 94.555L112.162 93.806L111.412 91.79Z" fill="black"/>
<path d="M37.927 77.567L36.75 80.735L33.582 81.913L36.75 83.09L37.927 86.258L39.106 83.09L42.273 81.913L39.106 80.735L37.927 77.567Z" fill="black"/>
<path d="M49.78 32.305L51.493 27.697L56.101 25.983L52.183 24.526L75.156 0L50.913 22.709L49.78 19.662L48.066 24.27L43.459 25.983L48.066 27.697L49.78 32.305Z" fill="black"/>
<path d="M26.865 105.394L25.473 109.138L21.729 110.53L25.473 111.922L26.865 115.666L28.258 111.922L32.001 110.53L29.598 109.636L84.836 52.743L27.858 108.063L26.865 105.394Z" fill="black"/>
<path d="M33.278 49.78L9.25204 72.284L7.90204 68.652L5.97404 73.836L0.790039 75.763L5.97404 77.691L7.90204 82.875L9.82904 77.691L15.013 75.763L10.508 74.088L33.278 49.78Z" fill="black"/>
<path d="M121.775 55.311L97.314 78.224L96.399 75.763L94.946 79.67L91.04 81.122L94.946 82.575L96.399 86.482L97.852 82.575L101.758 81.122L98.673 79.975L121.775 55.311Z" fill="black"/>
</svg>
