<svg width="60" height="60" viewBox="0 0 60 60" fill="none" xmlns="http://www.w3.org/2000/svg">
<circle cx="30" cy="30" r="30" fill="black"/>
<path d="M21.1999 24.8001C21.1999 23.8453 21.5792 22.9296 22.2543 22.2545C22.9294 21.5794 23.8451 21.2001 24.7999 21.2001C25.7547 21.2001 26.6704 21.5794 27.3455 22.2545C28.0206 22.9296 28.3999 23.8453 28.3999 24.8001C28.3999 25.7549 28.0206 26.6706 27.3455 27.3457C26.6704 28.0208 25.7547 28.4001 24.7999 28.4001C23.8451 28.4001 22.9294 28.0208 22.2543 27.3457C21.5792 26.6706 21.1999 25.7549 21.1999 24.8001ZM24.7999 19.6001C23.4208 19.6001 22.0981 20.148 21.1229 21.1231C20.1478 22.0983 19.5999 23.421 19.5999 24.8001C19.5999 26.1792 20.1478 27.5019 21.1229 28.4771C22.0981 29.4522 23.4208 30.0001 24.7999 30.0001C26.179 30.0001 27.5017 29.4522 28.4769 28.4771C29.452 27.5019 29.9999 26.1792 29.9999 24.8001C29.9999 23.421 29.452 22.0983 28.4769 21.1231C27.5017 20.148 26.179 19.6001 24.7999 19.6001ZM33.8991 38.2321C34.7599 38.5841 35.8431 38.8001 37.1999 38.8001C40.2095 38.8001 41.8735 37.7313 42.7503 36.5057C43.2077 35.8625 43.4946 35.1139 43.5839 34.3297C43.5919 34.2569 43.5972 34.1837 43.5999 34.1105V34.0001C43.5999 33.6849 43.5378 33.3728 43.4172 33.0817C43.2966 32.7905 43.1198 32.5259 42.897 32.303C42.6741 32.0802 42.4095 31.9034 42.1183 31.7828C41.8272 31.6622 41.5151 31.6001 41.1999 31.6001H33.7919C34.1759 32.0641 34.4639 32.6065 34.6319 33.2001H41.1999C41.4121 33.2001 41.6156 33.2844 41.7656 33.4344C41.9156 33.5844 41.9999 33.7879 41.9999 34.0001V34.0865L41.9919 34.1665C41.9306 34.6738 41.7436 35.1578 41.4479 35.5745C40.9247 36.3089 39.7887 37.2001 37.1999 37.2001C36.0287 37.2001 35.1551 37.0177 34.5007 36.7505C34.3695 37.1985 34.1791 37.7041 33.8991 38.2321ZM16.3999 34.8001C16.3999 33.9514 16.737 33.1375 17.3372 32.5374C17.9373 31.9372 18.7512 31.6001 19.5999 31.6001H29.9999C30.8486 31.6001 31.6625 31.9372 32.2626 32.5374C32.8628 33.1375 33.1999 33.9514 33.1999 34.8001V34.9345C33.1999 34.9505 33.1999 34.9713 33.1967 34.9985C33.1772 35.3153 33.1318 35.63 33.0607 35.9393C32.9247 36.5281 32.6543 37.3153 32.1087 38.1057C30.9871 39.7281 28.8207 41.2001 24.7999 41.2001C20.7791 41.2001 18.6127 39.7281 17.4911 38.1057C16.9004 37.2453 16.5321 36.252 16.4191 35.2145C16.4095 35.1214 16.4031 35.028 16.3999 34.9345V34.8001ZM17.9999 34.8961V34.9249L18.0111 35.0577C18.0978 35.8247 18.3714 36.5587 18.8079 37.1953C19.5871 38.3217 21.2207 39.6001 24.7999 39.6001C28.3791 39.6001 30.0127 38.3217 30.7919 37.1953C31.2285 36.5588 31.5021 35.8247 31.5887 35.0577C31.594 35.0136 31.5972 34.9693 31.5983 34.9249L31.5999 34.8977V34.8001C31.5999 34.3758 31.4313 33.9688 31.1313 33.6687C30.8312 33.3687 30.4242 33.2001 29.9999 33.2001H19.5999C19.1756 33.2001 18.7686 33.3687 18.4685 33.6687C18.1685 33.9688 17.9999 34.3758 17.9999 34.8001V34.8961ZM34.7999 26.0001C34.7999 25.3636 35.0528 24.7531 35.5028 24.303C35.9529 23.853 36.5634 23.6001 37.1999 23.6001C37.8364 23.6001 38.4469 23.853 38.897 24.303C39.347 24.7531 39.5999 25.3636 39.5999 26.0001C39.5999 26.6366 39.347 27.2471 38.897 27.6972C38.4469 28.1472 37.8364 28.4001 37.1999 28.4001C36.5634 28.4001 35.9529 28.1472 35.5028 27.6972C35.0528 27.2471 34.7999 26.6366 34.7999 26.0001ZM37.1999 22.0001C36.139 22.0001 35.1216 22.4215 34.3715 23.1717C33.6213 23.9218 33.1999 24.9392 33.1999 26.0001C33.1999 27.061 33.6213 28.0784 34.3715 28.8285C35.1216 29.5787 36.139 30.0001 37.1999 30.0001C38.2608 30.0001 39.2782 29.5787 40.0283 28.8285C40.7785 28.0784 41.1999 27.061 41.1999 26.0001C41.1999 24.9392 40.7785 23.9218 40.0283 23.1717C39.2782 22.4215 38.2608 22.0001 37.1999 22.0001Z" fill="white"/>
</svg>
