<svg width="61" height="60" viewBox="0 0 61 60" fill="none" xmlns="http://www.w3.org/2000/svg">
<circle cx="30.5" cy="30" r="30" fill="black"/>
<path d="M43.5 30.0001C43.5 30.5809 43.2693 31.1379 42.8586 31.5486C42.4479 31.9593 41.8908 32.1901 41.31 32.1901H34.2933L30.5 25.6187L34.008 19.5427C34.1518 19.2936 34.3433 19.0753 34.5715 18.9002C34.7997 18.7251 35.0602 18.5967 35.338 18.5223C35.6159 18.4479 35.9056 18.4289 36.1908 18.4665C36.476 18.5041 36.7509 18.5975 37 18.7414C37.2492 18.8852 37.4675 19.0766 37.6427 19.3048C37.8178 19.533 37.9463 19.7934 38.0208 20.0713C38.0953 20.3491 38.1143 20.6389 38.0767 20.9241C38.0392 21.2093 37.9458 21.4843 37.802 21.7334L34.294 27.8101H41.31C41.8908 27.8101 42.4479 28.0408 42.8586 28.4515C43.2693 28.8622 43.5 29.4192 43.5 30.0001Z" stroke="white" stroke-width="0.666667" stroke-linecap="round" stroke-linejoin="round"/>
<path d="M37 41.2587C36.751 41.4026 36.476 41.496 36.1908 41.5336C35.9057 41.5712 35.6159 41.5522 35.338 41.4778C35.0602 41.4034 34.7997 41.275 34.5715 41.0999C34.3433 40.9248 34.1518 40.7065 34.008 40.4574L30.5 34.3814L26.992 40.4574C26.8482 40.7065 26.6567 40.9248 26.4285 41.0999C26.2003 41.275 25.9398 41.4034 25.662 41.4778C25.3842 41.5522 25.0944 41.5712 24.8092 41.5336C24.5241 41.496 24.2491 41.4026 24 41.2587C23.7509 41.115 23.5325 40.9235 23.3573 40.6953C23.1822 40.4672 23.0537 40.2067 22.9792 39.9289C22.9047 39.651 22.8857 39.3612 22.9233 39.076C22.9608 38.7908 23.0542 38.5158 23.198 38.2667L26.7054 32.1901H34.2934L37.8014 38.2667C37.9452 38.5158 38.0386 38.7908 38.0762 39.0759C38.1138 39.3611 38.0949 39.6509 38.0204 39.9287C37.946 40.2066 37.8176 40.467 37.6425 40.6952C37.4674 40.9234 37.2491 41.1149 37 41.2587ZM30.5 25.6187L29.22 27.8354L26.706 27.8101L23.198 21.7334C23.0542 21.4843 22.9608 21.2093 22.9233 20.9241C22.8857 20.6389 22.9047 20.3491 22.9792 20.0713C23.0537 19.7934 23.1822 19.533 23.3573 19.3048C23.5325 19.0766 23.7509 18.8852 24 18.7414C24.2491 18.5975 24.5241 18.5041 24.8092 18.4665C25.0944 18.4289 25.3842 18.4479 25.662 18.5223C25.9398 18.5967 26.2003 18.7251 26.4285 18.9002C26.6567 19.0753 26.8482 19.2936 26.992 19.5427L30.5 25.6187Z" stroke="white" stroke-width="0.666667" stroke-linecap="round" stroke-linejoin="round"/>
<path d="M26.706 32.19L29.22 27.8353L19.69 27.81C19.1092 27.81 18.5521 28.0407 18.1414 28.4514C17.7307 28.8621 17.5 29.4192 17.5 30C17.5 30.5808 17.7307 31.1378 18.1414 31.5485C18.5521 31.9593 19.1092 32.19 19.69 32.19H26.706ZM26.706 32.19L30.5 25.6187L34.294 32.19H26.706Z" stroke="white" stroke-width="0.666667" stroke-linecap="round" stroke-linejoin="round"/>
</svg>
