<svg width="61" height="60" viewBox="0 0 61 60" fill="none" xmlns="http://www.w3.org/2000/svg">
<circle cx="30.5" cy="30" r="30" fill="black"/>
<g clip-path="url(#clip0_67_1636)">
<path d="M24 35.5C22.4667 35.5 21.1667 34.9667 20.1 33.9C19.0333 32.8333 18.5 31.5333 18.5 30C18.5 28.4667 19.0333 27.1667 20.1 26.1C21.1667 25.0333 22.4667 24.5 24 24.5C24.6167 24.5 25.2083 24.6083 25.775 24.825C26.3417 25.0417 26.85 25.35 27.3 25.75L29 27.3L27.5 28.65L25.95 27.25C25.6833 27.0167 25.3833 26.8333 25.05 26.7C24.7167 26.5667 24.3667 26.5 24 26.5C23.0333 26.5 22.2083 26.8417 21.525 27.525C20.8417 28.2083 20.5 29.0333 20.5 30C20.5 30.9667 20.8417 31.7917 21.525 32.475C22.2083 33.1583 23.0333 33.5 24 33.5C24.3667 33.5 24.7167 33.4333 25.05 33.3C25.3833 33.1667 25.6833 32.9833 25.95 32.75L33.7 25.75C34.15 25.35 34.6583 25.0417 35.225 24.825C35.7917 24.6083 36.3833 24.5 37 24.5C38.5333 24.5 39.8333 25.0333 40.9 26.1C41.9667 27.1667 42.5 28.4667 42.5 30C42.5 31.5333 41.9667 32.8333 40.9 33.9C39.8333 34.9667 38.5333 35.5 37 35.5C36.3833 35.5 35.7917 35.3917 35.225 35.175C34.6583 34.9583 34.15 34.65 33.7 34.25L32 32.7L33.5 31.35L35.05 32.75C35.3167 32.9833 35.6167 33.1667 35.95 33.3C36.2833 33.4333 36.6333 33.5 37 33.5C37.9667 33.5 38.7917 33.1583 39.475 32.475C40.1583 31.7917 40.5 30.9667 40.5 30C40.5 29.0333 40.1583 28.2083 39.475 27.525C38.7917 26.8417 37.9667 26.5 37 26.5C36.6333 26.5 36.2833 26.5667 35.95 26.7C35.6167 26.8333 35.3167 27.0167 35.05 27.25L27.3 34.25C26.85 34.65 26.3417 34.9583 25.775 35.175C25.2083 35.3917 24.6167 35.5 24 35.5Z" fill="white"/>
</g>
<defs>
<clipPath id="clip0_67_1636">
<rect width="24" height="24" fill="white" transform="translate(18.5 18)"/>
</clipPath>
</defs>
</svg>
