<svg width="60" height="60" viewBox="0 0 60 60" fill="none" xmlns="http://www.w3.org/2000/svg">
<circle cx="30" cy="30" r="30" fill="black"/>
<path d="M29.8624 14.9724L24.8686 20.2293L25.0124 23.9062L28.1749 26.1687L30.1686 37.5437L30.8436 35.8624L31.5811 21.1499L32.7499 21.2124L32.1811 32.5249L33.9499 28.0999L34.4624 21.3499L34.5186 20.2293L29.8624 14.9724ZM38.5499 18.133L35.6374 21.3062L35.3936 24.4999L36.0561 22.8624L37.9561 22.0062C38.1561 20.7187 38.3499 19.4249 38.5499 18.133ZM42.3186 21.3312L36.9624 23.7312L30.5499 39.7249L31.4624 44.9312H31.9499L41.1749 26.6124L42.2186 27.1374L33.2561 44.9312H34.7811L43.9436 26.6937L42.3186 21.3312ZM21.0561 22.5124L17.6743 28.7062L21.9936 44.9312H27.8436L24.6499 27.7562L25.7936 27.5437L29.0311 44.9312H30.2749L27.1061 26.8437L21.0561 22.5124ZM43.4499 38.7874L39.3374 38.4624L36.2249 44.6624L40.5874 42.3687L43.4499 38.7874ZM16.2024 37.0374L18.8568 44.9562H20.7936L19.0374 38.3687L16.2024 37.0374Z" fill="white"/>
</svg>
