<svg width="32" height="32" viewBox="0 0 32 32" fill="none" xmlns="http://www.w3.org/2000/svg">
<path d="M10.2932 21.9413L12.6412 21.264L26.7785 6.95733C26.89 6.84306 26.9521 6.68951 26.9514 6.52985C26.9506 6.37018 26.8871 6.21722 26.7745 6.104L25.9278 5.248C25.8731 5.19178 25.8078 5.14702 25.7356 5.11634C25.6634 5.08566 25.5858 5.06966 25.5073 5.06929C25.4289 5.06892 25.3512 5.08418 25.2787 5.11417C25.2062 5.14417 25.1404 5.1883 25.0852 5.244L10.9852 19.5133L10.2918 21.94L10.2932 21.9413ZM27.6038 3.552L28.4505 4.40933C29.6185 5.592 29.6292 7.5 28.4718 8.67067L13.9038 23.4147L8.88517 24.86C8.57877 24.9458 8.25085 24.9065 7.97339 24.7507C7.69592 24.595 7.49157 24.3356 7.40517 24.0293C7.34088 23.8092 7.33996 23.5753 7.4025 23.3547L8.8625 18.2347L23.3918 3.52933C23.6681 3.25114 23.997 3.03075 24.3594 2.881C24.7217 2.73126 25.1102 2.65516 25.5023 2.65714C25.8944 2.65913 26.2821 2.73916 26.6429 2.89257C27.0037 3.04598 27.3304 3.27102 27.6038 3.552ZM12.2452 5.08933C12.9065 5.08933 13.4425 5.632 13.4425 6.30133C13.4436 6.45956 13.4134 6.61644 13.3538 6.763C13.2942 6.90957 13.2063 7.04295 13.0951 7.15551C12.9839 7.26807 12.8516 7.35761 12.7057 7.41901C12.5599 7.48041 12.4034 7.51246 12.2452 7.51333H7.45584C6.13317 7.51333 5.06117 8.59867 5.06117 9.936V24.4773C5.06117 25.816 6.13317 26.9013 7.45584 26.9013H21.8238C23.1465 26.9013 24.2198 25.816 24.2198 24.4773V19.6307C24.2198 18.9613 24.7558 18.4187 25.4172 18.4187C26.0785 18.4187 26.6145 18.9613 26.6145 19.632V24.4773C26.6145 27.1547 24.4692 29.3253 21.8238 29.3253H7.45584C4.8105 29.3253 2.6665 27.1547 2.6665 24.4773V9.936C2.6665 7.26 4.8105 5.08933 7.45584 5.08933H12.2452Z" fill="black"/>
</svg>
