<svg width="84" height="58" viewBox="0 0 84 58" fill="none" xmlns="http://www.w3.org/2000/svg">
<rect width="11.3684" height="24" transform="translate(2 30.2988)" fill="white"/>
<path d="M7.02618 48.8372L9.8698 48.8372C10.0679 48.8372 10.2129 48.7912 10.3048 48.6992C10.3897 48.6002 10.4322 48.4375 10.4322 48.2112L10.4322 47.5215L11.6842 47.5215L11.6842 48.4552C11.6842 49.7072 11.0759 50.3333 9.85919 50.3333L7.02618 50.3333L7.02618 51.0336L5.80597 51.0336L5.80597 50.3333L4.35233 50.3333L4.35233 48.8372L5.80597 48.8372L5.80597 47.5215L7.02618 47.5215L7.02618 48.8372ZM5.72109 43.1426C5.72109 42.6969 5.82012 42.3008 6.01818 41.9542C6.20917 41.6076 6.49566 41.3388 6.87763 41.1478C7.25254 40.9497 7.70526 40.8507 8.23578 40.8507L11.6842 40.8507L11.6842 42.3362L8.43738 42.3362C7.97052 42.3362 7.6133 42.4529 7.36572 42.6863C7.11107 42.9197 6.98374 43.2381 6.98374 43.6413C6.98374 44.0515 7.11107 44.3769 7.36572 44.6174C7.6133 44.8509 7.97052 44.9676 8.43738 44.9676L11.6842 44.9676L11.6842 46.453L3.83241 46.453L3.83241 44.9676L6.5381 44.9676C6.28345 44.7766 6.08538 44.5219 5.94391 44.2036C5.79536 43.8853 5.72109 43.5316 5.72109 43.1426ZM8.61776 33.9737C8.82997 33.9737 9.02096 33.9878 9.19073 34.0161L9.19073 38.3134C9.61515 38.278 9.94761 38.1295 10.1881 37.8677C10.4286 37.606 10.5489 37.2841 10.5489 36.9022C10.5489 36.3504 10.3119 35.9578 9.83797 35.7244L9.83797 34.1222C10.4039 34.292 10.8707 34.6174 11.2386 35.0984C11.5993 35.5794 11.7797 36.17 11.7797 36.8703C11.7797 37.4362 11.6559 37.9455 11.4083 38.3983C11.1537 38.8439 10.7965 39.194 10.3367 39.4487C9.87688 39.6963 9.34635 39.8201 8.74509 39.8201C8.13675 39.8201 7.60269 39.6963 7.1429 39.4487C6.68311 39.2011 6.32942 38.8545 6.08185 38.4089C5.83427 37.9632 5.71048 37.4504 5.71048 36.8703C5.71048 36.3115 5.83073 35.8128 6.07123 35.3743C6.31174 34.9286 6.65481 34.5855 7.10046 34.345C7.53902 34.0974 8.04479 33.9737 8.61776 33.9737ZM8.19334 35.5122C7.81136 35.5193 7.50719 35.6572 7.28083 35.926C7.0474 36.1948 6.93069 36.5237 6.93069 36.9128C6.93069 37.2806 7.04387 37.5919 7.27022 37.8465C7.48951 38.0941 7.79721 38.2462 8.19334 38.3028L8.19334 35.5122Z" fill="black"/>
<path d="M11.16 19.7068C12.104 19.8828 12.88 20.3548 13.488 21.1228C14.096 21.8908 14.4 22.7708 14.4 23.7628C14.4 24.6588 14.176 25.4508 13.728 26.1388C13.296 26.8108 12.664 27.3388 11.832 27.7228C11 28.1068 10.016 28.2988 8.88 28.2988H1.656V11.5468H8.568C9.704 11.5468 10.68 11.7308 11.496 12.0988C12.328 12.4668 12.952 12.9788 13.368 13.6348C13.8 14.2908 14.016 15.0348 14.016 15.8668C14.016 16.8428 13.752 17.6588 13.224 18.3148C12.712 18.9708 12.024 19.4348 11.16 19.7068ZM5.016 18.4588H8.088C8.888 18.4588 9.504 18.2828 9.936 17.9308C10.368 17.5628 10.584 17.0428 10.584 16.3708C10.584 15.6988 10.368 15.1788 9.936 14.8108C9.504 14.4428 8.888 14.2588 8.088 14.2588H5.016V18.4588ZM8.4 25.5628C9.216 25.5628 9.848 25.3708 10.296 24.9868C10.76 24.6028 10.992 24.0588 10.992 23.3548C10.992 22.6348 10.752 22.0748 10.272 21.6748C9.792 21.2588 9.144 21.0508 8.328 21.0508H5.016V25.5628H8.4ZM38.8421 14.8108C39.8501 14.8108 40.7461 15.0348 41.5301 15.4828C42.3141 15.9148 42.9221 16.5628 43.3541 17.4268C43.8021 18.2748 44.0261 19.2988 44.0261 20.4988V28.2988H40.6661V20.9548C40.6661 19.8988 40.4021 19.0908 39.8741 18.5308C39.3461 17.9548 38.6261 17.6668 37.7141 17.6668C36.7861 17.6668 36.0501 17.9548 35.5061 18.5308C34.9781 19.0908 34.7141 19.8988 34.7141 20.9548V28.2988H31.3541V10.5388H34.7141V16.6588C35.1461 16.0828 35.7221 15.6348 36.4421 15.3148C37.1621 14.9788 37.9621 14.8108 38.8421 14.8108ZM48.2053 13.4188C47.6133 13.4188 47.1173 13.2348 46.7173 12.8668C46.3333 12.4828 46.1413 12.0108 46.1413 11.4508C46.1413 10.8908 46.3333 10.4268 46.7173 10.0588C47.1173 9.67483 47.6133 9.48283 48.2053 9.48283C48.7973 9.48283 49.2853 9.67483 49.6693 10.0588C50.0693 10.4268 50.2693 10.8908 50.2693 11.4508C50.2693 12.0108 50.0693 12.4828 49.6693 12.8668C49.2853 13.2348 48.7973 13.4188 48.2053 13.4188ZM49.8613 15.0028V28.2988H46.5013V15.0028H49.8613ZM59.829 14.8108C61.413 14.8108 62.693 15.3148 63.669 16.3228C64.645 17.3148 65.133 18.7068 65.133 20.4988V28.2988H61.773V20.9548C61.773 19.8988 61.509 19.0908 60.981 18.5308C60.453 17.9548 59.733 17.6668 58.821 17.6668C57.893 17.6668 57.157 17.9548 56.613 18.5308C56.085 19.0908 55.821 19.8988 55.821 20.9548V28.2988H52.461V15.0028H55.821V16.6588C56.269 16.0828 56.837 15.6348 57.525 15.3148C58.229 14.9788 58.997 14.8108 59.829 14.8108ZM66.7442 21.6028C66.7442 20.2588 67.0082 19.0668 67.5362 18.0268C68.0802 16.9868 68.8162 16.1868 69.7442 15.6268C70.6722 15.0668 71.7042 14.7868 72.8402 14.7868C73.7042 14.7868 74.5282 14.9788 75.3122 15.3628C76.0962 15.7308 76.7202 16.2268 77.1842 16.8508V10.5388H80.5922V28.2988H77.1842V26.3308C76.7682 26.9868 76.1842 27.5148 75.4322 27.9148C74.6802 28.3148 73.8082 28.5148 72.8162 28.5148C71.6962 28.5148 70.6722 28.2268 69.7442 27.6508C68.8162 27.0748 68.0802 26.2668 67.5362 25.2268C67.0082 24.1708 66.7442 22.9628 66.7442 21.6028ZM77.2082 21.6508C77.2082 20.8348 77.0482 20.1388 76.7282 19.5628C76.4082 18.9708 75.9762 18.5228 75.4322 18.2188C74.8882 17.8988 74.3042 17.7388 73.6802 17.7388C73.0562 17.7388 72.4802 17.8908 71.9522 18.1948C71.4242 18.4988 70.9922 18.9468 70.6562 19.5388C70.3362 20.1148 70.1762 20.8028 70.1762 21.6028C70.1762 22.4028 70.3362 23.1068 70.6562 23.7148C70.9922 24.3068 71.4242 24.7628 71.9522 25.0828C72.4962 25.4028 73.0722 25.5628 73.6802 25.5628C74.3042 25.5628 74.8882 25.4108 75.4322 25.1068C75.9762 24.7868 76.4082 24.3388 76.7282 23.7628C77.0482 23.1708 77.2082 22.4668 77.2082 21.6508Z" fill="white"/>
<path d="M20.0558 48.7847C19.1051 48.7847 18.2456 48.6219 17.4772 48.2963C16.7219 47.9707 16.1228 47.5019 15.68 46.8898C15.2372 46.2777 15.0093 45.5549 14.9963 44.7214H17.9265C17.9656 45.2814 18.1609 45.7242 18.5126 46.0498C18.8772 46.3754 19.3721 46.5382 19.9972 46.5382C20.6353 46.5382 21.1367 46.3884 21.5014 46.0889C21.866 45.7763 22.0484 45.3726 22.0484 44.8777C22.0484 44.474 21.9247 44.1419 21.6772 43.8814C21.4298 43.621 21.1172 43.4191 20.7395 43.2759C20.3749 43.1196 19.867 42.9503 19.2158 42.7679C18.3302 42.5075 17.6074 42.2535 17.0474 42.0061C16.5005 41.7456 16.0251 41.3614 15.6214 40.8535C15.2307 40.3326 15.0353 39.6424 15.0353 38.7828C15.0353 37.9754 15.2372 37.2721 15.6409 36.6731C16.0447 36.074 16.6112 35.6182 17.3405 35.3056C18.0698 34.98 18.9033 34.8173 19.8409 34.8173C21.2474 34.8173 22.387 35.1624 23.2595 35.8526C24.1451 36.5298 24.6335 37.4805 24.7247 38.7047H21.7163C21.6902 38.2359 21.4884 37.8517 21.1107 37.5521C20.746 37.2396 20.2577 37.0833 19.6456 37.0833C19.1116 37.0833 18.6819 37.22 18.3563 37.4935C18.0437 37.767 17.8874 38.1642 17.8874 38.6852C17.8874 39.0498 18.0047 39.3559 18.2391 39.6033C18.4865 39.8377 18.786 40.0331 19.1377 40.1893C19.5023 40.3326 20.0102 40.5019 20.6614 40.6973C21.547 40.9577 22.2698 41.2182 22.8298 41.4786C23.3898 41.7391 23.8716 42.1298 24.2754 42.6507C24.6791 43.1717 24.8809 43.8554 24.8809 44.7019C24.8809 45.4312 24.6921 46.1084 24.3144 46.7335C23.9367 47.3586 23.3833 47.86 22.654 48.2377C21.9247 48.6024 21.0586 48.7847 20.0558 48.7847ZM25.9627 43.2368C25.9627 42.1168 26.1906 41.14 26.6464 40.3066C27.1022 39.46 27.7338 38.8089 28.5413 38.3531C29.3487 37.8842 30.2734 37.6498 31.3152 37.6498C32.6566 37.6498 33.7636 37.9884 34.6362 38.6656C35.5217 39.3298 36.1143 40.2675 36.4138 41.4786H33.4641C33.3078 41.0098 33.0408 40.6452 32.6631 40.3847C32.2985 40.1112 31.8427 39.9745 31.2957 39.9745C30.5143 39.9745 29.8957 40.261 29.4399 40.834C28.9841 41.394 28.7562 42.1949 28.7562 43.2368C28.7562 44.2656 28.9841 45.0666 29.4399 45.6396C29.8957 46.1996 30.5143 46.4796 31.2957 46.4796C32.4027 46.4796 33.1255 45.9847 33.4641 44.9949H36.4138C36.1143 46.167 35.5217 47.0982 34.6362 47.7884C33.7506 48.4786 32.6436 48.8238 31.3152 48.8238C30.2734 48.8238 29.3487 48.5959 28.5413 48.14C27.7338 47.6712 27.1022 47.02 26.6464 46.1866C26.1906 45.34 25.9627 44.3568 25.9627 43.2368ZM47.8918 43.0024C47.8918 43.3931 47.8658 43.7447 47.8137 44.0573H39.902C39.9672 44.8386 40.2406 45.4507 40.7225 45.8935C41.2044 46.3363 41.7969 46.5577 42.5002 46.5577C43.516 46.5577 44.2388 46.1214 44.6686 45.2489H47.6183C47.3058 46.2907 46.7067 47.1503 45.8211 47.8275C44.9355 48.4917 43.8481 48.8238 42.5588 48.8238C41.5169 48.8238 40.5792 48.5959 39.7458 48.14C38.9253 47.6712 38.2806 47.0135 37.8118 46.167C37.356 45.3205 37.1281 44.3438 37.1281 43.2368C37.1281 42.1168 37.356 41.1335 37.8118 40.287C38.2676 39.4405 38.9058 38.7893 39.7262 38.3335C40.5467 37.8777 41.4909 37.6498 42.5588 37.6498C43.5876 37.6498 44.5058 37.8712 45.3132 38.314C46.1337 38.7568 46.7653 39.3884 47.2081 40.2089C47.6639 41.0163 47.8918 41.9475 47.8918 43.0024ZM45.0592 42.221C45.0462 41.5177 44.7923 40.9577 44.2974 40.541C43.8025 40.1112 43.1969 39.8963 42.4806 39.8963C41.8034 39.8963 41.2304 40.1047 40.7616 40.5214C40.3058 40.9252 40.0258 41.4917 39.9216 42.221H45.0592ZM55.2992 37.6693C56.5885 37.6693 57.6304 38.0796 58.4248 38.9C59.2192 39.7075 59.6164 40.8405 59.6164 42.2991V48.6479H56.8815V42.6703C56.8815 41.8107 56.6666 41.1531 56.2369 40.6973C55.8071 40.2284 55.221 39.994 54.4787 39.994C53.7234 39.994 53.1243 40.2284 52.6815 40.6973C52.2517 41.1531 52.0369 41.8107 52.0369 42.6703V48.6479H49.302V37.8256H52.0369V39.1735C52.4015 38.7047 52.8638 38.34 53.4238 38.0796C53.9969 37.8061 54.622 37.6693 55.2992 37.6693ZM71.6916 43.0024C71.6916 43.3931 71.6655 43.7447 71.6134 44.0573H63.7018C63.7669 44.8386 64.0404 45.4507 64.5223 45.8935C65.0041 46.3363 65.5967 46.5577 66.2999 46.5577C67.3157 46.5577 68.0385 46.1214 68.4683 45.2489H71.4181C71.1055 46.2907 70.5064 47.1503 69.6209 47.8275C68.7353 48.4917 67.6478 48.8238 66.3585 48.8238C65.3167 48.8238 64.379 48.5959 63.5455 48.14C62.725 47.6712 62.0804 47.0135 61.6116 46.167C61.1557 45.3205 60.9278 44.3438 60.9278 43.2368C60.9278 42.1168 61.1557 41.1335 61.6116 40.287C62.0674 39.4405 62.7055 38.7893 63.526 38.3335C64.3464 37.8777 65.2906 37.6498 66.3585 37.6498C67.3874 37.6498 68.3055 37.8712 69.1129 38.314C69.9334 38.7568 70.565 39.3884 71.0078 40.2089C71.4636 41.0163 71.6916 41.9475 71.6916 43.0024ZM68.859 42.221C68.846 41.5177 68.592 40.9577 68.0971 40.541C67.6023 40.1112 66.9967 39.8963 66.2804 39.8963C65.6032 39.8963 65.0302 40.1047 64.5613 40.5214C64.1055 40.9252 63.8255 41.4917 63.7213 42.221H68.859ZM77.2431 48.8238C76.3575 48.8238 75.5631 48.6675 74.8599 48.3549C74.1566 48.0293 73.5966 47.5931 73.1799 47.0461C72.7761 46.4991 72.5548 45.8935 72.5157 45.2293H75.2701C75.3222 45.6461 75.5241 45.9912 75.8757 46.2647C76.2403 46.5382 76.6896 46.6749 77.2236 46.6749C77.7445 46.6749 78.1482 46.5707 78.4348 46.3624C78.7343 46.154 78.8841 45.887 78.8841 45.5614C78.8841 45.2098 78.7017 44.9493 78.3371 44.78C77.9855 44.5977 77.4189 44.4024 76.6375 44.194C75.8301 43.9986 75.1659 43.7968 74.645 43.5884C74.1371 43.38 73.6943 43.061 73.3166 42.6312C72.952 42.2014 72.7696 41.6219 72.7696 40.8926C72.7696 40.2935 72.9389 39.7466 73.2775 39.2517C73.6292 38.7568 74.1241 38.3661 74.7622 38.0796C75.4134 37.7931 76.1752 37.6498 77.0478 37.6498C78.3371 37.6498 79.3659 37.9754 80.1343 38.6266C80.9027 39.2647 81.3259 40.1307 81.4041 41.2247H78.7864C78.7473 40.7949 78.565 40.4563 78.2394 40.2089C77.9268 39.9484 77.5036 39.8182 76.9696 39.8182C76.4748 39.8182 76.0906 39.9093 75.8171 40.0917C75.5566 40.274 75.4264 40.5279 75.4264 40.8535C75.4264 41.2182 75.6087 41.4982 75.9734 41.6935C76.338 41.8759 76.9045 42.0647 77.6729 42.26C78.4543 42.4554 79.0989 42.6573 79.6068 42.8656C80.1148 43.074 80.551 43.3996 80.9157 43.8424C81.2934 44.2721 81.4887 44.8452 81.5017 45.5614C81.5017 46.1866 81.3259 46.7466 80.9743 47.2414C80.6357 47.7363 80.1408 48.127 79.4896 48.4135C78.8515 48.687 78.1027 48.8238 77.2431 48.8238Z" fill="white"/>
<path d="M26.9984 15.9722C27.3037 16.3426 27.5538 16.6963 27.7487 17.0333L20.2485 23.216C20.9209 23.9059 21.6585 24.2724 22.4613 24.3156C23.2641 24.3588 23.9989 24.1056 24.6656 23.5561C25.6285 22.7622 25.9728 21.7838 25.6984 20.6208L28.4947 18.3156C29.0126 19.5476 29.1164 20.8306 28.8061 22.1646C28.4856 23.4863 27.7142 24.6509 26.492 25.6585C25.5043 26.4726 24.4373 26.9894 23.2909 27.2086C22.1467 27.4053 21.0217 27.2856 19.9157 26.8495C18.8221 26.4032 17.8427 25.6554 16.9776 24.6059C16.1024 23.5442 15.5501 22.434 15.3207 21.2753C15.0912 20.1166 15.1873 19.0006 15.6089 17.9273C16.0305 16.854 16.7475 15.9001 17.7599 15.0656C18.7352 14.2616 19.7786 13.754 20.8901 13.5428C22.0139 13.3214 23.1063 13.4265 24.1672 13.8583C25.2303 14.2676 26.1741 14.9722 26.9984 15.9722ZM23.7025 17.445C23.1406 16.7885 22.4622 16.4561 21.6674 16.4478C20.8624 16.4271 20.1204 16.6966 19.4414 17.2564C18.7994 17.7856 18.419 18.4309 18.3002 19.1924C18.1836 19.9313 18.3609 20.6871 18.832 21.4599L23.7025 17.445Z" fill="#919191"/>
</svg>
