<svg width="84" height="58" viewBox="0 0 84 58" fill="none" xmlns="http://www.w3.org/2000/svg">
<rect width="11.3684" height="24" transform="translate(2 30.2989)" fill="black"/>
<path d="M7.0263 48.8372L9.86993 48.8372C10.068 48.8372 10.213 48.7913 10.305 48.6993C10.3898 48.6003 10.4323 48.4376 10.4323 48.2112L10.4323 47.5215L11.6843 47.5215L11.6843 48.4553C11.6843 49.7073 11.076 50.3333 9.85932 50.3333L7.0263 50.3333L7.0263 51.0336L5.80609 51.0336L5.80609 50.3333L4.35245 50.3333L4.35245 48.8372L5.80609 48.8372L5.80609 47.5215L7.0263 47.5215L7.0263 48.8372ZM5.72121 43.1426C5.72121 42.697 5.82024 42.3009 6.0183 41.9542C6.20929 41.6076 6.49578 41.3388 6.87776 41.1478C7.25266 40.9498 7.70538 40.8508 8.2359 40.8508L11.6843 40.8508L11.6843 42.3362L8.4375 42.3362C7.97064 42.3362 7.61342 42.4529 7.36584 42.6864C7.11119 42.9198 6.98386 43.2381 6.98386 43.6413C6.98386 44.0516 7.11119 44.377 7.36584 44.6175C7.61342 44.8509 7.97064 44.9676 8.4375 44.9676L11.6843 44.9676L11.6843 46.4531L3.83254 46.4531L3.83254 44.9676L6.53822 44.9676C6.28357 44.7766 6.0855 44.522 5.94403 44.2037C5.79548 43.8854 5.72121 43.5317 5.72121 43.1426ZM8.61788 33.9737C8.83009 33.9737 9.02108 33.9879 9.19085 34.0162L9.19085 38.3134C9.61527 38.2781 9.94774 38.1295 10.1882 37.8678C10.4287 37.6061 10.549 37.2842 10.549 36.9022C10.549 36.3505 10.312 35.9579 9.83809 35.7245L9.83809 34.1223C10.404 34.292 10.8709 34.6174 11.2387 35.0984C11.5994 35.5794 11.7798 36.1701 11.7798 36.8704C11.7798 37.4363 11.656 37.9456 11.4085 38.3983C11.1538 38.844 10.7966 39.1941 10.3368 39.4488C9.877 39.6963 9.34647 39.8201 8.74521 39.8201C8.13687 39.8201 7.60281 39.6963 7.14302 39.4488C6.68323 39.2012 6.32955 38.8546 6.08197 38.4089C5.83439 37.9633 5.7106 37.4504 5.7106 36.8704C5.7106 36.3116 5.83085 35.8129 6.07136 35.3743C6.31186 34.9287 6.65494 34.5856 7.10058 34.3451C7.53915 34.0975 8.04491 33.9737 8.61788 33.9737ZM8.19346 35.5122C7.81148 35.5193 7.50731 35.6573 7.28096 35.9261C7.04753 36.1949 6.93081 36.5238 6.93081 36.9128C6.93081 37.2807 7.04399 37.5919 7.27035 37.8466C7.48963 38.0941 7.79734 38.2462 8.19346 38.3028L8.19346 35.5122Z" fill="white"/>
<path d="M11.16 19.7069C12.104 19.8829 12.88 20.3549 13.488 21.1229C14.096 21.8909 14.4 22.7709 14.4 23.7629C14.4 24.6589 14.176 25.4509 13.728 26.1389C13.296 26.8109 12.664 27.3389 11.832 27.7229C11 28.1069 10.016 28.2989 8.88 28.2989H1.656V11.5469H8.568C9.704 11.5469 10.68 11.7309 11.496 12.0989C12.328 12.4669 12.952 12.9789 13.368 13.6349C13.8 14.2909 14.016 15.0349 14.016 15.8669C14.016 16.8429 13.752 17.6589 13.224 18.3149C12.712 18.9709 12.024 19.4349 11.16 19.7069ZM5.016 18.4589H8.088C8.888 18.4589 9.504 18.2829 9.936 17.9309C10.368 17.5629 10.584 17.0429 10.584 16.3709C10.584 15.6989 10.368 15.1789 9.936 14.8109C9.504 14.4429 8.888 14.2589 8.088 14.2589H5.016V18.4589ZM8.4 25.5629C9.216 25.5629 9.848 25.3709 10.296 24.9869C10.76 24.6029 10.992 24.0589 10.992 23.3549C10.992 22.6349 10.752 22.0749 10.272 21.6749C9.792 21.2589 9.144 21.0509 8.328 21.0509H5.016V25.5629H8.4ZM38.8421 14.8109C39.8501 14.8109 40.7461 15.0349 41.5301 15.4829C42.3141 15.9149 42.9221 16.5629 43.3541 17.4269C43.8021 18.2749 44.0261 19.2989 44.0261 20.4989V28.2989H40.6661V20.9549C40.6661 19.8989 40.4021 19.0909 39.8741 18.5309C39.3461 17.9549 38.6261 17.6669 37.7141 17.6669C36.7861 17.6669 36.0501 17.9549 35.5061 18.5309C34.9781 19.0909 34.7141 19.8989 34.7141 20.9549V28.2989H31.3541V10.5389H34.7141V16.6589C35.1461 16.0829 35.7221 15.6349 36.4421 15.3149C37.1621 14.9789 37.9621 14.8109 38.8421 14.8109ZM48.2053 13.4189C47.6133 13.4189 47.1173 13.2349 46.7173 12.8669C46.3333 12.4829 46.1413 12.0109 46.1413 11.4509C46.1413 10.8909 46.3333 10.4269 46.7173 10.0589C47.1173 9.67489 47.6133 9.48289 48.2053 9.48289C48.7973 9.48289 49.2853 9.67489 49.6693 10.0589C50.0693 10.4269 50.2693 10.8909 50.2693 11.4509C50.2693 12.0109 50.0693 12.4829 49.6693 12.8669C49.2853 13.2349 48.7973 13.4189 48.2053 13.4189ZM49.8613 15.0029V28.2989H46.5013V15.0029H49.8613ZM59.829 14.8109C61.413 14.8109 62.693 15.3149 63.669 16.3229C64.645 17.3149 65.133 18.7069 65.133 20.4989V28.2989H61.773V20.9549C61.773 19.8989 61.509 19.0909 60.981 18.5309C60.453 17.9549 59.733 17.6669 58.821 17.6669C57.893 17.6669 57.157 17.9549 56.613 18.5309C56.085 19.0909 55.821 19.8989 55.821 20.9549V28.2989H52.461V15.0029H55.821V16.6589C56.269 16.0829 56.837 15.6349 57.525 15.3149C58.229 14.9789 58.997 14.8109 59.829 14.8109ZM66.7442 21.6029C66.7442 20.2589 67.0082 19.0669 67.5362 18.0269C68.0802 16.9869 68.8162 16.1869 69.7442 15.6269C70.6722 15.0669 71.7042 14.7869 72.8402 14.7869C73.7042 14.7869 74.5282 14.9789 75.3122 15.3629C76.0962 15.7309 76.7202 16.2269 77.1842 16.8509V10.5389H80.5922V28.2989H77.1842V26.3309C76.7682 26.9869 76.1842 27.5149 75.4322 27.9149C74.6802 28.3149 73.8082 28.5149 72.8162 28.5149C71.6962 28.5149 70.6722 28.2269 69.7442 27.6509C68.8162 27.0749 68.0802 26.2669 67.5362 25.2269C67.0082 24.1709 66.7442 22.9629 66.7442 21.6029ZM77.2082 21.6509C77.2082 20.8349 77.0482 20.1389 76.7282 19.5629C76.4082 18.9709 75.9762 18.5229 75.4322 18.2189C74.8882 17.8989 74.3042 17.7389 73.6802 17.7389C73.0562 17.7389 72.4802 17.8909 71.9522 18.1949C71.4242 18.4989 70.9922 18.9469 70.6562 19.5389C70.3362 20.1149 70.1762 20.8029 70.1762 21.6029C70.1762 22.4029 70.3362 23.1069 70.6562 23.7149C70.9922 24.3069 71.4242 24.7629 71.9522 25.0829C72.4962 25.4029 73.0722 25.5629 73.6802 25.5629C74.3042 25.5629 74.8882 25.4109 75.4322 25.1069C75.9762 24.7869 76.4082 24.3389 76.7282 23.7629C77.0482 23.1709 77.2082 22.4669 77.2082 21.6509Z" fill="black"/>
<path d="M20.0558 48.7844C19.1051 48.7844 18.2456 48.6217 17.4772 48.2961C16.7219 47.9705 16.1228 47.5017 15.68 46.8896C15.2372 46.2775 15.0093 45.5547 14.9963 44.7212H17.9265C17.9656 45.2812 18.1609 45.724 18.5126 46.0496C18.8772 46.3751 19.3721 46.5379 19.9972 46.5379C20.6353 46.5379 21.1367 46.3882 21.5014 46.0886C21.866 45.7761 22.0484 45.3724 22.0484 44.8775C22.0484 44.4738 21.9247 44.1417 21.6772 43.8812C21.4298 43.6207 21.1172 43.4189 20.7395 43.2756C20.3749 43.1193 19.867 42.95 19.2158 42.7677C18.3302 42.5072 17.6074 42.2533 17.0474 42.0058C16.5005 41.7454 16.0251 41.3612 15.6214 40.8533C15.2307 40.3324 15.0353 39.6421 15.0353 38.7826C15.0353 37.9751 15.2372 37.2719 15.6409 36.6728C16.0447 36.0737 16.6112 35.6179 17.3405 35.3054C18.0698 34.9798 18.9033 34.817 19.8409 34.817C21.2474 34.817 22.387 35.1621 23.2595 35.8524C24.1451 36.5296 24.6335 37.4803 24.7247 38.7044H21.7163C21.6902 38.2356 21.4884 37.8514 21.1107 37.5519C20.746 37.2393 20.2577 37.0831 19.6456 37.0831C19.1116 37.0831 18.6819 37.2198 18.3563 37.4933C18.0437 37.7668 17.8874 38.164 17.8874 38.6849C17.8874 39.0496 18.0047 39.3556 18.2391 39.6031C18.4865 39.8375 18.786 40.0328 19.1377 40.1891C19.5023 40.3324 20.0102 40.5017 20.6614 40.697C21.547 40.9575 22.2698 41.2179 22.8298 41.4784C23.3898 41.7389 23.8716 42.1296 24.2754 42.6505C24.6791 43.1714 24.8809 43.8551 24.8809 44.7017C24.8809 45.431 24.6921 46.1082 24.3144 46.7333C23.9367 47.3584 23.3833 47.8598 22.654 48.2375C21.9247 48.6021 21.0586 48.7844 20.0558 48.7844ZM25.9627 43.2365C25.9627 42.1165 26.1906 41.1398 26.6464 40.3063C27.1022 39.4598 27.7338 38.8086 28.5413 38.3528C29.3487 37.884 30.2734 37.6496 31.3152 37.6496C32.6566 37.6496 33.7636 37.9882 34.6362 38.6654C35.5217 39.3296 36.1143 40.2672 36.4138 41.4784H33.4641C33.3078 41.0096 33.0408 40.6449 32.6631 40.3844C32.2985 40.111 31.8427 39.9742 31.2957 39.9742C30.5143 39.9742 29.8957 40.2607 29.4399 40.8338C28.9841 41.3938 28.7562 42.1947 28.7562 43.2365C28.7562 44.2654 28.9841 45.0663 29.4399 45.6393C29.8957 46.1993 30.5143 46.4793 31.2957 46.4793C32.4027 46.4793 33.1255 45.9844 33.4641 44.9947H36.4138C36.1143 46.1668 35.5217 47.0979 34.6362 47.7882C33.7506 48.4784 32.6436 48.8235 31.3152 48.8235C30.2734 48.8235 29.3487 48.5956 28.5413 48.1398C27.7338 47.671 27.1022 47.0198 26.6464 46.1863C26.1906 45.3398 25.9627 44.3565 25.9627 43.2365ZM47.8918 43.0021C47.8918 43.3928 47.8658 43.7444 47.8137 44.057H39.902C39.9672 44.8384 40.2406 45.4505 40.7225 45.8933C41.2044 46.3361 41.7969 46.5575 42.5002 46.5575C43.516 46.5575 44.2388 46.1212 44.6686 45.2486H47.6183C47.3058 46.2905 46.7067 47.15 45.8211 47.8272C44.9355 48.4914 43.8481 48.8235 42.5588 48.8235C41.5169 48.8235 40.5792 48.5956 39.7458 48.1398C38.9253 47.671 38.2806 47.0133 37.8118 46.1668C37.356 45.3203 37.1281 44.3435 37.1281 43.2365C37.1281 42.1165 37.356 41.1333 37.8118 40.2868C38.2676 39.4403 38.9058 38.7891 39.7262 38.3333C40.5467 37.8775 41.4909 37.6496 42.5588 37.6496C43.5876 37.6496 44.5058 37.871 45.3132 38.3137C46.1337 38.7565 46.7653 39.3882 47.2081 40.2086C47.6639 41.0161 47.8918 41.9472 47.8918 43.0021ZM45.0592 42.2207C45.0462 41.5175 44.7923 40.9575 44.2974 40.5407C43.8025 40.111 43.1969 39.8961 42.4806 39.8961C41.8034 39.8961 41.2304 40.1044 40.7616 40.5212C40.3058 40.9249 40.0258 41.4914 39.9216 42.2207H45.0592ZM55.2992 37.6691C56.5885 37.6691 57.6304 38.0793 58.4248 38.8998C59.2192 39.7072 59.6164 40.8403 59.6164 42.2989V48.6477H56.8815V42.67C56.8815 41.8105 56.6666 41.1528 56.2369 40.697C55.8071 40.2282 55.221 39.9938 54.4787 39.9938C53.7234 39.9938 53.1243 40.2282 52.6815 40.697C52.2517 41.1528 52.0369 41.8105 52.0369 42.67V48.6477H49.302V37.8254H52.0369V39.1733C52.4015 38.7044 52.8638 38.3398 53.4238 38.0793C53.9969 37.8058 54.622 37.6691 55.2992 37.6691ZM71.6916 43.0021C71.6916 43.3928 71.6655 43.7444 71.6134 44.057H63.7018C63.7669 44.8384 64.0404 45.4505 64.5223 45.8933C65.0041 46.3361 65.5967 46.5575 66.2999 46.5575C67.3157 46.5575 68.0385 46.1212 68.4683 45.2486H71.4181C71.1055 46.2905 70.5064 47.15 69.6209 47.8272C68.7353 48.4914 67.6478 48.8235 66.3585 48.8235C65.3167 48.8235 64.379 48.5956 63.5455 48.1398C62.725 47.671 62.0804 47.0133 61.6116 46.1668C61.1557 45.3203 60.9278 44.3435 60.9278 43.2365C60.9278 42.1165 61.1557 41.1333 61.6116 40.2868C62.0674 39.4403 62.7055 38.7891 63.526 38.3333C64.3464 37.8775 65.2906 37.6496 66.3585 37.6496C67.3874 37.6496 68.3055 37.871 69.1129 38.3137C69.9334 38.7565 70.565 39.3882 71.0078 40.2086C71.4636 41.0161 71.6916 41.9472 71.6916 43.0021ZM68.859 42.2207C68.846 41.5175 68.592 40.9575 68.0971 40.5407C67.6023 40.111 66.9967 39.8961 66.2804 39.8961C65.6032 39.8961 65.0302 40.1044 64.5613 40.5212C64.1055 40.9249 63.8255 41.4914 63.7213 42.2207H68.859ZM77.2431 48.8235C76.3575 48.8235 75.5631 48.6672 74.8599 48.3547C74.1566 48.0291 73.5966 47.5928 73.1799 47.0458C72.7761 46.4989 72.5548 45.8933 72.5157 45.2291H75.2701C75.3222 45.6458 75.5241 45.991 75.8757 46.2644C76.2403 46.5379 76.6896 46.6747 77.2236 46.6747C77.7445 46.6747 78.1482 46.5705 78.4348 46.3621C78.7343 46.1538 78.8841 45.8868 78.8841 45.5612C78.8841 45.2096 78.7017 44.9491 78.3371 44.7798C77.9855 44.5975 77.4189 44.4021 76.6375 44.1938C75.8301 43.9984 75.1659 43.7965 74.645 43.5882C74.1371 43.3798 73.6943 43.0607 73.3166 42.631C72.952 42.2012 72.7696 41.6217 72.7696 40.8924C72.7696 40.2933 72.9389 39.7463 73.2775 39.2514C73.6292 38.7565 74.1241 38.3658 74.7622 38.0793C75.4134 37.7928 76.1752 37.6496 77.0478 37.6496C78.3371 37.6496 79.3659 37.9751 80.1343 38.6263C80.9027 39.2644 81.3259 40.1305 81.4041 41.2244H78.7864C78.7473 40.7947 78.565 40.4561 78.2394 40.2086C77.9268 39.9482 77.5036 39.8179 76.9696 39.8179C76.4748 39.8179 76.0906 39.9091 75.8171 40.0914C75.5566 40.2738 75.4264 40.5277 75.4264 40.8533C75.4264 41.2179 75.6087 41.4979 75.9734 41.6933C76.338 41.8756 76.9045 42.0644 77.6729 42.2598C78.4543 42.4551 79.0989 42.657 79.6068 42.8654C80.1148 43.0738 80.551 43.3993 80.9157 43.8421C81.2934 44.2719 81.4887 44.8449 81.5017 45.5612C81.5017 46.1863 81.3259 46.7463 80.9743 47.2412C80.6357 47.7361 80.1408 48.1268 79.4896 48.4133C78.8515 48.6868 78.1027 48.8235 77.2431 48.8235Z" fill="black"/>
<path d="M26.9984 15.9722C27.3037 16.3426 27.5538 16.6963 27.7487 17.0333L20.2485 23.216C20.9209 23.9059 21.6585 24.2724 22.4613 24.3156C23.2641 24.3588 23.9989 24.1056 24.6656 23.5561C25.6285 22.7622 25.9728 21.7838 25.6984 20.6208L28.4947 18.3156C29.0126 19.5476 29.1164 20.8306 28.8061 22.1646C28.4856 23.4863 27.7142 24.6509 26.492 25.6585C25.5043 26.4726 24.4373 26.9894 23.2909 27.2086C22.1467 27.4053 21.0217 27.2856 19.9157 26.8495C18.8221 26.4032 17.8427 25.6554 16.9776 24.6059C16.1024 23.5442 15.5501 22.434 15.3207 21.2753C15.0912 20.1166 15.1873 19.0006 15.6089 17.9273C16.0305 16.854 16.7475 15.9001 17.7599 15.0656C18.7352 14.2616 19.7786 13.754 20.8901 13.5428C22.0139 13.3214 23.1063 13.4265 24.1672 13.8583C25.2303 14.2676 26.1741 14.9722 26.9984 15.9722ZM23.7025 17.445C23.1406 16.7885 22.4622 16.4561 21.6674 16.4478C20.8624 16.4271 20.1204 16.6966 19.4414 17.2564C18.7994 17.7856 18.419 18.4309 18.3002 19.1924C18.1836 19.9313 18.3609 20.6871 18.832 21.4599L23.7025 17.445Z" fill="#919191"/>
</svg>
